<svg width="120" height="120" viewBox="0 0 120 120" fill="none" xmlns="http://www.w3.org/2000/svg">
  <!-- Background circle -->
  <circle cx="60" cy="60" r="58" fill="#FEF3C7" stroke="#F59E0B" stroke-width="2"/>

  <!-- Lock body -->
  <rect x="40" y="55" width="40" height="35" rx="5" fill="#F59E0B"/>

  <!-- Lock shackle -->
  <path d="M48 55V45C48 38 53 33 60 33C67 33 72 38 72 45V55" stroke="#D97706" stroke-width="6" stroke-linecap="round" fill="none"/>

  <!-- Keyhole -->
  <circle cx="60" cy="70" r="6" fill="#FEF3C7"/>
  <rect x="57" y="70" width="6" height="10" rx="1" fill="#FEF3C7"/>

  <!-- Refresh arrow -->
  <circle cx="85" cy="35" r="12" fill="#3B82F6" stroke="white" stroke-width="2"/>
  <path d="M80 35C80 32 82 30 85 30C88 30 90 32 90 35" stroke="white" stroke-width="2" stroke-linecap="round" fill="none"/>
  <path d="M88 30L90 35L85 35" fill="white"/>
  <path d="M90 35C90 38 88 40 85 40C82 40 80 38 80 35" stroke="white" stroke-width="2" stroke-linecap="round" fill="none"/>
  <path d="M82 40L80 35L85 35" fill="white"/>

  <!-- Sparkle -->
  <circle cx="25" cy="45" r="2.5" fill="#FCD34D"/>
</svg>
