<svg width="120" height="120" viewBox="0 0 120 120" fill="none" xmlns="http://www.w3.org/2000/svg">
  <!-- Background circle -->
  <circle cx="60" cy="60" r="58" fill="#E0F2FE" stroke="#0EA5E9" stroke-width="2"/>

  <!-- Folder back -->
  <rect x="28" y="42" width="64" height="46" rx="4" fill="#0EA5E9"/>

  <!-- Folder tab -->
  <path d="M28 46C28 43.7909 29.7909 42 32 42H50L56 50H88C90.2091 50 92 51.7909 92 54V84C92 86.2091 90.2091 88 88 88H32C29.7909 88 28 86.2091 28 84V46Z" fill="#38BDF8"/>

  <!-- Document 1 -->
  <rect x="38" y="54" width="28" height="6" rx="2" fill="white" opacity="0.9"/>

  <!-- Document 2 -->
  <rect x="38" y="64" width="44" height="4" rx="2" fill="white" opacity="0.7"/>

  <!-- Document 3 -->
  <rect x="38" y="72" width="36" height="4" rx="2" fill="white" opacity="0.7"/>

  <!-- Document 4 -->
  <rect x="38" y="80" width="20" height="4" rx="2" fill="white" opacity="0.5"/>

  <!-- Checkmark badge -->
  <circle cx="82" cy="38" r="14" fill="#22C55E" stroke="white" stroke-width="3"/>
  <path d="M76 38L80 42L88 34" stroke="white" stroke-width="3" stroke-linecap="round" stroke-linejoin="round"/>
</svg>
