<svg width="120" height="120" viewBox="0 0 120 120" fill="none" xmlns="http://www.w3.org/2000/svg">
  <!-- Background circle -->
  <circle cx="60" cy="60" r="58" fill="#FEF3C7" stroke="#F59E0B" stroke-width="2"/>

  <!-- Vial body -->
  <rect x="42" y="35" width="36" height="55" rx="4" fill="white" stroke="#F59E0B" stroke-width="2"/>

  <!-- Vial cap -->
  <rect x="46" y="28" width="28" height="10" rx="3" fill="#F59E0B"/>

  <!-- Liquid -->
  <rect x="44" y="60" width="32" height="28" rx="2" fill="#FCD34D" opacity="0.8"/>

  <!-- Measurement lines -->
  <line x1="78" y1="45" x2="72" y2="45" stroke="#D97706" stroke-width="1.5"/>
  <line x1="78" y1="55" x2="72" y2="55" stroke="#D97706" stroke-width="1.5"/>
  <line x1="78" y1="65" x2="72" y2="65" stroke="#D97706" stroke-width="1.5"/>
  <line x1="78" y1="75" x2="72" y2="75" stroke="#D97706" stroke-width="1.5"/>

  <!-- Label -->
  <rect x="48" y="42" width="20" height="12" rx="2" fill="#F59E0B" opacity="0.3"/>
  <text x="58" y="51" text-anchor="middle" font-size="8" font-weight="bold" fill="#92400E">LOT</text>

  <!-- QR code symbol -->
  <rect x="50" y="68" width="16" height="16" fill="white" stroke="#92400E" stroke-width="1"/>
  <rect x="52" y="70" width="4" height="4" fill="#92400E"/>
  <rect x="60" y="70" width="4" height="4" fill="#92400E"/>
  <rect x="52" y="78" width="4" height="4" fill="#92400E"/>
  <rect x="56" y="74" width="4" height="4" fill="#92400E"/>
</svg>
