<svg width="24" height="24" viewBox="0 0 24 24" fill="none" xmlns="http://www.w3.org/2000/svg">
<path d="M15 22.75H9C3.57 22.75 1.25 20.43 1.25 15V9C1.25 3.57 3.57 1.25 9 1.25H15C20.43 1.25 22.75 3.57 22.75 9V15C22.75 20.43 20.43 22.75 15 22.75ZM9 2.75C4.39 2.75 2.75 4.39 2.75 9V15C2.75 19.61 4.39 21.25 9 21.25H15C19.61 21.25 21.25 19.61 21.25 15V9C21.25 4.39 19.61 2.75 15 2.75H9Z"/>
<path d="M8.80999 18.25C8.73999 18.25 8.65999 18.25 8.58999 18.23L7.39999 18.07C6.67999 17.97 6.04999 17.35 5.93999 16.61L5.76999 15.4C5.69999 14.92 5.89999 14.31 6.24999 13.95L8.52999 11.67C8.18999 10.05 8.67999 8.37001 9.86999 7.19001C11.78 5.28001 14.9 5.28001 16.81 7.19001C17.74 8.12001 18.25 9.35001 18.25 10.66C18.25 11.97 17.74 13.21 16.81 14.13C15.62 15.31 13.94 15.8 12.33 15.46L10.04 17.74C9.74999 18.05 9.25999 18.25 8.80999 18.25ZM13.34 7.25001C12.47 7.25001 11.59 7.58001 10.93 8.25001C10.03 9.15001 9.70999 10.46 10.08 11.68C10.16 11.95 10.09 12.23 9.88999 12.43L7.30999 15.01C7.28999 15.04 7.24999 15.15 7.24999 15.19L7.41999 16.39C7.42999 16.45 7.53999 16.56 7.59999 16.57L8.79999 16.74C8.84999 16.73 8.94999 16.71 8.97999 16.68L11.57 14.09C11.77 13.89 12.06 13.83 12.32 13.91C13.53 14.29 14.84 13.97 15.74 13.07C16.38 12.43 16.74 11.57 16.74 10.66C16.74 9.75001 16.39 8.89001 15.74 8.25001C15.09 7.59001 14.21 7.25001 13.34 7.25001Z"/>
<path d="M10.45 17.03C10.26 17.03 10.07 16.96 9.92003 16.81L9.06003 15.95C8.77003 15.66 8.77003 15.18 9.06003 14.89C9.35003 14.6 9.83003 14.6 10.12 14.89L10.98 15.75C11.27 16.04 11.27 16.52 10.98 16.81C10.84 16.96 10.65 17.03 10.45 17.03Z"/>
<path d="M13.3801 11.8C13.2401 11.8 13.1101 11.78 12.9901 11.73C12.8701 11.68 12.7601 11.6 12.6701 11.51C12.4801 11.32 12.3701 11.07 12.3701 10.8C12.3701 10.54 12.4801 10.28 12.6701 10.1C12.9001 9.85999 13.2501 9.74999 13.5701 9.81999C13.6301 9.83999 13.7001 9.84999 13.7601 9.87999C13.8201 9.90999 13.8801 9.93999 13.9301 9.96999C13.9801 10.01 14.0401 10.05 14.0801 10.1C14.2701 10.28 14.3801 10.54 14.3801 10.8C14.3801 10.94 14.3501 11.06 14.3001 11.19C14.2501 11.31 14.1801 11.42 14.0801 11.51C13.8901 11.7 13.6401 11.8 13.3801 11.8Z"/>
</svg>
