<svg width="343" height="292" viewBox="0 0 343 292" fill="none" xmlns="http://www.w3.org/2000/svg">
<path d="M234.18 291.368H243.1C244.234 291.366 245.32 290.914 246.122 290.111C246.924 289.307 247.375 288.218 247.376 287.081V212.564C247.375 211.427 246.924 210.338 246.122 209.534C245.32 208.731 244.234 208.279 243.1 208.277H234.18C233.046 208.279 231.959 208.731 231.157 209.534C230.356 210.338 229.905 211.427 229.903 212.564V287.081C229.905 288.218 230.356 289.307 231.157 290.111C231.959 290.914 233.046 291.366 234.18 291.368Z" fill="#FF708F"/>
<path d="M256.053 291.368H264.973C266.106 291.366 267.193 290.914 267.995 290.111C268.797 289.307 269.248 288.218 269.249 287.081V212.564C269.248 211.427 268.797 210.338 267.995 209.534C267.193 208.731 266.106 208.279 264.973 208.277H256.053C254.919 208.279 253.832 208.731 253.03 209.534C252.228 210.338 251.777 211.427 251.776 212.564V287.081C251.777 288.218 252.228 289.307 253.03 290.111C253.832 290.914 254.919 291.366 256.053 291.368Z" fill="#FF708F"/>
<path d="M247.022 114.53C227.408 114.53 211.508 98.5921 211.508 78.9323C211.508 59.2724 227.408 43.335 247.022 43.335C266.636 43.335 282.537 59.2724 282.537 78.9323C282.537 98.5921 266.636 114.53 247.022 114.53Z" fill="#FF708F"/>
<path d="M226.953 90.7474C224.707 90.2374 221.912 89.6023 220.059 87.5881C219.511 86.969 219.104 86.2372 218.868 85.4441C218.632 84.651 218.572 83.8158 218.692 82.9969C218.766 82.4128 218.975 81.8539 219.3 81.3638C219.626 80.8737 220.06 80.4658 220.569 80.1718C221.889 79.4378 223.585 79.5401 225.261 80.4167L226.079 66.5444L227.469 66.6265L226.508 82.9351L225.48 82.1914C224.288 81.3295 222.55 80.6667 221.245 81.3922C220.922 81.5854 220.647 81.8508 220.443 82.1676C220.239 82.4844 220.11 82.8442 220.067 83.219C219.981 83.8292 220.027 84.4507 220.203 85.0413C220.378 85.6318 220.678 86.1777 221.083 86.6416C222.525 88.209 224.734 88.8117 227.261 89.386L226.953 90.7474Z" fill="#0C282E"/>
<path d="M211.796 64.9269L219.155 66.3838L218.885 67.7533L211.526 66.2964L211.796 64.9269Z" fill="#0C282E"/>
<path d="M235.022 69.5265L242.381 70.9834L242.111 72.3529L234.752 70.896L235.022 69.5265Z" fill="#0C282E"/>
<path d="M238.287 226.252H279.693C280.978 226.251 282.21 225.739 283.118 224.828C284.027 223.917 284.538 222.682 284.539 221.395V159.114C284.528 149.541 280.73 140.363 273.976 133.594C267.223 126.825 258.067 123.017 248.516 123.006C238.696 123.018 229.282 126.933 222.338 133.892C215.395 140.852 211.489 150.289 211.478 160.131V199.381C211.486 206.505 214.313 213.335 219.339 218.373C224.365 223.411 231.18 226.244 238.287 226.252Z" fill="#0C282E"/>
<path d="M253.68 63.2607C252.534 59.8157 248.552 58.4868 245.239 58.3836C240.582 58.2385 236.036 59.8961 231.365 59.1553C222.891 57.8114 217.601 49.6256 215.952 41.7892C214.852 36.5625 214.95 31.2044 215.074 25.8932C215.066 25.6884 215.118 25.4857 215.222 25.3096C215.327 25.1334 215.48 24.9913 215.663 24.9002C215.846 24.8091 216.052 24.7731 216.255 24.7963C216.458 24.8196 216.65 24.9012 216.808 25.0313C220.196 27.3483 222.631 30.8169 223.664 34.7952L221.635 35.2158L220.568 25.9393C220.553 25.7095 220.614 25.4812 220.74 25.2887C220.866 25.0963 221.051 24.9503 221.267 24.8726C224.446 23.7629 227.096 26.2672 228.825 28.6364C229.721 29.8633 230.58 31.2001 231.911 31.9989C233.298 32.7564 234.884 33.0644 236.452 32.8805C239.69 32.6458 242.76 31.4194 245.933 30.8122C248.846 30.2687 251.816 30.1031 254.771 30.3196C260.62 30.7311 266.288 32.5237 271.313 35.5509C276.333 38.5824 280.928 42.9149 283.592 48.2046C285.113 51.2247 285.939 54.701 285.103 58.0486C284.769 59.5693 284.084 60.9903 283.102 62.1977C282.121 63.405 280.871 64.3651 279.453 65.001C278.21 65.5228 277.533 63.5407 278.768 63.0224C281.121 62.0351 282.614 59.7202 283.137 57.2827C283.734 54.4969 283.003 51.6145 281.729 49.1195C279.25 44.2606 275.005 40.2201 270.378 37.4239C265.668 34.58 260.367 32.8649 254.887 32.4125C252.206 32.1986 249.509 32.3163 246.857 32.763C243.882 33.2599 241.036 34.3272 238.055 34.7984C234.782 35.3155 231.387 34.8607 229.045 32.3084C227.323 30.4312 225.194 25.7194 221.952 26.8512L222.652 25.7845L223.719 35.061C223.852 36.2217 221.989 36.6414 221.69 35.4816C220.759 31.8508 218.529 28.6898 215.424 26.6003L217.158 25.7384C216.952 34.5449 216.768 44.2781 222.624 51.4944C225.136 54.5902 228.672 56.855 232.69 57.2158C237.216 57.6224 241.659 55.98 246.192 56.3593C250.111 56.6873 254.327 58.5865 255.654 62.5742C256.08 63.8544 254.106 64.5403 253.68 63.2607Z" fill="#0C282E"/>
<path d="M235.83 94.5569C235.835 94.6573 235.842 94.758 235.853 94.859C235.935 95.7113 236.185 96.5388 236.589 97.2935C236.992 98.0483 237.541 98.7154 238.204 99.2562L245.572 105.305C246.908 106.398 248.621 106.916 250.336 106.745C252.052 106.573 253.629 105.727 254.723 104.392L273.225 81.7473C274.315 80.4089 274.831 78.6917 274.661 76.9723C274.49 75.2529 273.646 73.6716 272.313 72.575L264.945 66.5266C264.284 65.9842 263.523 65.5776 262.706 65.33C261.889 65.0824 261.031 64.9985 260.181 65.0833C259.332 65.1681 258.507 65.4199 257.754 65.8242C257.002 66.2285 256.336 66.7774 255.795 67.4397L237.294 90.0842C236.263 91.3381 235.741 92.9347 235.83 94.5569Z" fill="#0C282E"/>
<path d="M259.312 83.1833C258.037 83.1833 257.003 82.1471 257.003 80.869C257.003 79.5908 258.037 78.5547 259.312 78.5547C260.587 78.5547 261.621 79.5908 261.621 80.869C261.621 82.1471 260.587 83.1833 259.312 83.1833Z" fill="white"/>
<path d="M243.366 83.6952L243.368 83.71C242.387 83.919 241.52 84.4882 240.938 85.3058C240.355 86.1233 240.098 87.1298 240.219 88.1273L248.108 152.91C248.361 154.988 249.399 156.889 251.009 158.223C252.618 159.557 254.677 160.222 256.761 160.081C258.845 159.94 260.795 159.004 262.211 157.466C263.628 155.927 264.402 153.903 264.375 151.81C264.37 151.515 264.35 151.22 264.314 150.927L256.425 86.1446C256.297 85.087 255.754 84.1239 254.917 83.4673C254.08 82.8107 253.016 82.5143 251.961 82.6434L243.366 83.6952Z" fill="#FF708F"/>
<path d="M78.598 179.246C62.2584 179.246 49.0126 165.969 49.0126 149.591C49.0126 133.213 62.2584 119.937 78.598 119.937C94.9375 119.937 108.183 133.213 108.183 149.591C108.183 165.969 94.9375 179.246 78.598 179.246Z" fill="#F6F7F8"/>
<path d="M75.139 162.039C77.0568 161.986 79.4435 161.919 81.2823 160.573C81.8298 160.156 82.2797 159.623 82.6003 159.013C82.921 158.403 83.1048 157.731 83.1387 157.042C83.1719 156.552 83.0918 156.062 82.9046 155.609C82.7174 155.156 82.4281 154.752 82.0595 154.429C81.5116 154.019 80.8701 153.754 80.1934 153.656C79.5167 153.558 78.8264 153.632 78.1854 153.87L79.7512 142.401L78.6018 142.243L76.761 155.727L77.7208 155.285C78.8337 154.774 80.3613 154.513 81.3105 155.317C81.5436 155.528 81.7252 155.789 81.8412 156.081C81.9572 156.373 82.0044 156.688 81.9792 157.001C81.9511 157.514 81.8131 158.014 81.5748 158.468C81.3364 158.923 81.0032 159.32 80.5979 159.634C79.1669 160.681 77.2645 160.817 75.1067 160.877L75.139 162.039Z" fill="#0C282E"/>
<path d="M85.4357 143.39H91.6843V144.553H85.4357V143.39Z" fill="#0C282E"/>
<path d="M65.7123 143.39H71.9609V144.553H65.7123V143.39Z" fill="#0C282E"/>
<path d="M78.5977 196.451C87.8441 196.451 96.8829 193.703 104.571 188.554C112.259 183.405 118.251 176.086 121.79 167.524C125.328 158.961 126.254 149.539 124.45 140.449C122.646 131.359 118.194 123.009 111.655 116.456C105.117 109.902 96.787 105.439 87.7183 103.631C78.6495 101.823 69.2496 102.751 60.707 106.298C52.1644 109.845 44.863 115.851 39.7259 123.557C34.5889 131.263 31.847 140.323 31.847 149.591C31.861 162.015 36.791 173.926 45.5554 182.711C54.3198 191.496 66.2029 196.437 78.5977 196.451ZM78.5977 104.015C87.5908 104.015 96.3819 106.688 103.859 111.696C111.337 116.704 117.165 123.822 120.606 132.15C124.048 140.478 124.948 149.642 123.194 158.483C121.439 167.324 117.109 175.444 110.75 181.818C104.391 188.192 96.2887 192.533 87.4684 194.292C78.6481 196.05 69.5057 195.148 61.1971 191.698C52.8886 188.249 45.7872 182.407 40.7909 174.912C35.7947 167.417 33.1279 158.605 33.1279 149.591C33.1415 137.508 37.9364 125.923 46.4607 117.379C54.985 108.835 66.5425 104.028 78.5977 104.015Z" fill="#0C282E"/>
<path d="M119.575 287.958C106.553 287.958 95.9961 277.376 95.9961 264.323C95.9961 251.27 106.553 240.689 119.575 240.689C132.598 240.689 143.154 251.27 143.154 264.323C143.154 277.376 132.598 287.958 119.575 287.958Z" fill="#F6F7F8"/>
<path d="M38.6492 287.958C25.6268 287.958 15.0701 277.376 15.0701 264.323C15.0701 251.27 25.6268 240.689 38.6492 240.689C51.6716 240.689 62.2283 251.27 62.2283 264.323C62.2283 277.376 51.6716 287.958 38.6492 287.958Z" fill="#D0D5DD"/>
<path d="M108.121 269.043C108.908 269.075 109.676 268.795 110.258 268.263C110.84 267.731 111.189 266.99 111.23 266.202C111.234 266.142 111.238 266.083 111.241 266.023H127.909C127.912 266.083 127.916 266.142 127.921 266.202C127.941 266.604 128.042 266.998 128.218 267.361C128.393 267.723 128.64 268.047 128.943 268.312C129.246 268.577 129.599 268.778 129.981 268.903C130.364 269.028 130.767 269.075 131.168 269.04C131.585 269.037 131.997 268.951 132.381 268.788C132.764 268.624 133.112 268.386 133.404 268.087C133.695 267.789 133.925 267.435 134.08 267.047C134.234 266.659 134.311 266.244 134.305 265.826V265.702C134.303 264.085 133.661 262.535 132.521 261.392C131.38 260.248 129.834 259.605 128.221 259.604H110.93C109.317 259.605 107.77 260.248 106.63 261.392C105.489 262.535 104.847 264.085 104.846 265.702V265.826C104.84 266.244 104.916 266.659 105.071 267.047C105.225 267.435 105.455 267.789 105.747 268.087C106.038 268.386 106.386 268.624 106.77 268.788C107.154 268.951 107.566 269.037 107.983 269.04C108.029 269.042 108.075 269.043 108.121 269.043Z" fill="white"/>
<path d="M33.2297 277.414C33.6248 277.414 34.0189 277.376 34.4067 277.3C35.1916 277.149 35.9388 276.843 36.6051 276.4C37.2713 275.958 37.8434 275.387 38.2881 274.722L47.9492 260.347C48.8488 259.005 49.1807 257.36 48.872 255.773C48.5633 254.186 47.6392 252.787 46.3025 251.882L46.1996 251.813C45.8571 251.574 45.471 251.406 45.0635 251.318C44.656 251.23 44.2351 251.224 43.8251 251.299C43.415 251.375 43.0239 251.531 42.6743 251.758C42.3246 251.986 42.0233 252.28 41.7876 252.625C41.5365 252.939 41.3508 253.301 41.2416 253.688C41.1323 254.076 41.1017 254.481 41.1515 254.881C41.2013 255.28 41.3306 255.666 41.5317 256.014C41.7327 256.363 42.0015 256.668 42.322 256.91C42.3685 256.947 42.4156 256.984 42.4634 257.02L33.151 270.876C33.0999 270.845 33.0484 270.815 32.9966 270.786C32.6518 270.579 32.2692 270.444 31.8714 270.388C31.4737 270.332 31.0687 270.357 30.6807 270.461C30.2926 270.565 29.9292 270.745 29.6119 270.992C29.2947 271.239 29.0302 271.548 28.8338 271.899C28.6034 272.247 28.4441 272.638 28.3649 273.048C28.2858 273.458 28.2884 273.88 28.3727 274.29C28.457 274.699 28.6212 275.088 28.8559 275.433C29.0906 275.779 29.3912 276.074 29.7404 276.303L29.8435 276.372C30.843 277.051 32.0224 277.414 33.2297 277.414Z" fill="white"/>
</svg>
