<svg viewBox="0 0 196 131" fill="none" xmlns="http://www.w3.org/2000/svg">
<g id="undraw_page_not_found_re_e9o6 1" clip-path="url(#clip0_4802_32717)">
<path id="Vector" d="M99.2919 37.0374C97.5442 34.1503 95.4734 31.0677 92.2302 30.125C88.4744 29.0332 84.6163 31.202 81.3437 33.3422C71.5567 39.7426 62.1317 46.6789 53.1118 54.1193L53.1217 54.2313C60.144 53.7476 67.1664 53.2639 74.1887 52.7802C79.2623 52.4307 84.5103 52.033 88.994 49.6356C90.6954 48.7259 92.3539 47.5107 94.2819 47.426C96.6772 47.3208 98.7658 48.9918 100.407 50.7376C110.116 61.0646 112.926 76.857 123.818 85.93C116.95 69.0104 108.749 52.6616 99.2919 37.0374Z" fill="#EAECEF"/>
<path id="Vector_2" d="M158.972 124.629C157.898 123.275 157.46 122.958 156.401 121.591C147.777 110.451 139.672 98.9341 132.085 87.0412C126.931 78.964 122.033 70.7317 117.391 62.3443C115.181 58.3569 113.031 54.3381 110.942 50.288C109.321 47.1477 107.736 43.9886 106.188 40.8108C105.745 39.9031 105.315 38.9912 104.886 38.0773C103.877 35.9281 102.887 33.7685 101.824 31.6485C100.612 29.2323 99.1375 26.6992 96.9127 25.0758C95.9002 24.3067 94.6895 23.8413 93.422 23.7341C91.6109 23.6173 89.9397 24.3643 88.3688 25.1801C76.8752 31.1665 66.115 38.672 56.3825 47.2124C46.625 55.772 37.9034 65.4423 30.3955 76.0261C30.1658 76.3537 29.6226 76.0407 29.8545 75.711C30.7674 74.4215 31.6984 73.1459 32.6475 71.8842C44.4487 56.2069 58.9188 42.7252 75.3962 32.0554C78.1684 30.261 80.9927 28.5507 83.8691 26.9245C85.3189 26.1045 86.7749 25.2949 88.256 24.5354C89.7079 23.7905 91.2495 23.1207 92.9081 23.0956C98.5525 23.008 101.475 29.3929 103.483 33.6892C104.113 35.0413 104.752 36.3893 105.398 37.733C107.84 42.8347 110.376 47.8898 113.006 52.8984C114.629 55.9907 116.288 59.0649 117.982 62.1211C123.255 71.638 128.859 80.9623 134.794 90.0939C142.657 102.19 150.457 112.875 159.415 124.187C159.661 124.5 159.221 124.946 158.972 124.629Z" fill="#D0D5DD"/>
<path id="Vector_3" d="M55.8246 44.06C55.4966 43.6948 55.1707 43.3297 54.8407 42.9645C52.2378 40.0892 49.4449 37.2473 45.8706 35.5989C44.1664 34.7881 42.3059 34.3573 40.4184 34.3365C38.4673 34.3427 36.5601 34.854 34.7573 35.5697C33.905 35.9098 33.0715 36.2958 32.2506 36.7068C31.3126 37.1784 30.3913 37.6813 29.4743 38.1883C27.7529 39.1398 26.0539 40.133 24.3772 41.168C21.0411 43.2274 17.8094 45.4441 14.6823 47.8179C13.0612 49.049 11.4735 50.3205 9.91933 51.6322C8.47377 52.8508 7.05746 54.102 5.67038 55.386C5.37376 55.6593 4.93088 55.217 5.22749 54.9436C5.59306 54.6035 5.96282 54.2655 6.33257 53.9316C7.37706 52.9885 8.43827 52.0634 9.51622 51.1565C11.4819 49.4997 13.4984 47.907 15.5659 46.3782C18.7808 43.9995 22.1065 41.7821 25.5428 39.7261C27.26 38.6995 29.0008 37.7161 30.7652 36.7757C31.298 36.4919 31.837 36.2144 32.3821 35.9515C33.6192 35.3282 34.9046 34.8056 36.2258 34.3886C38.0974 33.7839 40.0775 33.5896 42.0311 33.819C43.9174 34.0931 45.7347 34.721 47.3873 35.6698C50.8967 37.6291 53.6186 40.6588 56.2674 43.6155C56.5349 43.916 56.0941 44.3605 55.8246 44.06Z" fill="#D0D5DD"/>
<path id="Vector_4" d="M127.732 73.8563L136.142 70.784L140.317 69.2585C141.677 68.7617 143.033 68.1962 144.439 67.8404C145.661 67.4919 146.958 67.5084 148.17 67.8879C149.251 68.2876 150.241 68.9004 151.08 69.6898C151.938 70.4786 152.736 71.3296 153.467 72.236C154.376 73.3272 155.272 74.4299 156.172 75.5289C159.885 80.0646 163.573 84.6199 167.238 89.195C170.902 93.77 174.542 98.3644 178.157 102.978C181.782 107.603 185.381 112.248 188.955 116.912C189.393 117.483 189.831 118.055 190.268 118.627C190.509 118.942 191.054 118.631 190.809 118.311C187.208 113.6 183.582 108.908 179.931 104.236C176.271 99.553 172.586 94.8895 168.876 90.2459C165.165 85.6025 161.43 80.9791 157.669 76.3759C156.732 75.2291 155.794 74.0835 154.854 72.9393C154.061 71.974 153.277 70.9984 152.408 70.1C150.811 68.4509 148.817 66.9935 146.43 66.954C145.026 66.9307 143.667 67.3756 142.363 67.8469C140.957 68.3549 139.555 68.8724 138.151 69.3854L129.683 72.4792L127.565 73.2527C127.19 73.3899 127.352 73.9951 127.732 73.8563Z" fill="#D0D5DD"/>
<path id="Vector_5" d="M44.7638 39.217C40.4903 37.0232 35.0174 37.4528 31.0903 40.1938C38.5809 41.4846 45.9896 43.2118 53.2784 45.3664C50.2516 43.5947 47.884 40.8188 44.7638 39.217Z" fill="#EAECEF"/>
<path id="Vector_6" d="M31.0483 40.1855L30.2256 40.8535C30.5039 40.6197 30.7932 40.4005 31.0904 40.1931C31.0763 40.1907 31.0623 40.188 31.0483 40.1855Z" fill="#EAECEF"/>
<path id="Vector_7" d="M150.764 73.8862C149.936 72.8797 149.041 71.8258 147.802 71.417L146.646 71.4625C155.446 86.9945 167.331 100.566 181.572 111.345C171.302 98.8586 161.033 86.3724 150.764 73.8862Z" fill="#EAECEF"/>
<path id="Vector_8" d="M78.8779 65.583C79.4129 67.5244 80.6181 69.2142 82.2803 70.3534C82.923 70.7905 83.6833 71.2097 83.9031 71.9546C84.0188 72.4295 83.9475 72.9305 83.7041 73.3544C83.461 73.7729 83.1653 74.1585 82.8242 74.5019L82.7931 74.6184C81.1983 73.6744 79.6811 72.4804 78.8002 70.8512C77.9193 69.222 77.7963 67.0867 78.8779 65.583Z" fill="#EAECEF"/>
<path id="Vector_9" d="M131.972 111.789C132.507 113.73 133.712 115.42 135.375 116.56C136.017 116.997 136.778 117.416 136.997 118.161C137.113 118.636 137.042 119.137 136.798 119.56C136.555 119.979 136.26 120.365 135.918 120.708L135.887 120.824C134.293 119.88 132.775 118.686 131.894 117.057C131.014 115.428 130.891 113.293 131.972 111.789Z" fill="#EAECEF"/>
<path id="Vector_10" d="M26.0115 108.602C26.5465 110.543 27.7517 112.233 29.4139 113.372C30.0565 113.809 30.8168 114.228 31.0367 114.973C31.1523 115.448 31.0811 115.949 30.8376 116.373C30.5946 116.791 30.2989 117.177 29.9577 117.52L29.9266 117.637C28.3319 116.693 26.8147 115.499 25.9338 113.87C25.0528 112.241 24.9299 110.105 26.0115 108.602Z" fill="#EAECEF"/>
<path id="Vector_11" d="M147.946 23.7164C154.364 23.7164 159.567 18.5192 159.567 12.1082C159.567 5.69717 154.364 0.5 147.946 0.5C141.527 0.5 136.324 5.69717 136.324 12.1082C136.324 18.5192 141.527 23.7164 147.946 23.7164Z" fill="#00A79B"/>
<path id="Vector_12" d="M168.918 3.20143C163.286 2.44099 156.856 5.4818 155.396 10.9683C155.028 9.99283 154.359 9.1594 153.486 8.58844C152.613 8.01748 151.581 7.73857 150.538 7.79199C149.496 7.84541 148.498 8.2284 147.688 8.88563C146.878 9.54287 146.298 10.4403 146.032 11.4483L146.677 11.9096C158.746 14.5167 171.241 14.4603 183.286 11.7443C179.368 7.63157 174.55 3.96185 168.918 3.20143Z" fill="#F6F7F8"/>
<path id="Vector_13" d="M144.763 18.679C139.131 17.9185 132.701 20.9593 131.241 26.4459C130.873 25.4704 130.205 24.6369 129.331 24.066C128.458 23.495 127.426 23.2161 126.384 23.2695C125.341 23.323 124.343 23.7059 123.533 24.3632C122.723 25.0204 122.143 25.9178 121.877 26.9258L122.522 27.3871C134.592 29.9943 147.086 29.9378 159.132 27.2218C155.214 23.1091 150.396 19.4394 144.763 18.679Z" fill="#F6F7F8"/>
<path id="Vector_14" d="M193.922 21.6057C193.898 21.6058 193.875 21.6022 193.853 21.5951C133.602 2.5626 80.4992 5.05143 46.5609 10.4908C41.9423 11.2307 37.3113 12.0854 32.7966 13.0312C31.644 13.2724 30.4482 13.5309 29.2425 13.8C27.8026 14.1203 26.3819 14.4502 25.0195 14.7801C24.4312 14.9192 23.8543 15.0595 23.2889 15.2008C22.4325 15.412 21.5635 15.632 20.632 15.8739C19.5911 16.1419 18.5335 16.4231 17.488 16.7096C17.4841 16.711 17.4802 16.7121 17.4763 16.713L17.4764 16.7132C16.2954 17.0353 15.1207 17.3667 13.9846 17.6977C13.3698 17.875 12.7761 18.05 12.2074 18.2227C12.1439 18.2402 12.0876 18.2571 12.0305 18.2745L11.9083 18.3116C11.8376 18.3332 11.7677 18.3543 11.6978 18.3743L11.6934 18.3756L11.6935 18.3758L11.5085 18.4332C11.288 18.4999 11.0728 18.565 10.8612 18.6299C5.26809 20.3521 2.19337 21.5773 2.163 21.5893C2.13522 21.6004 2.10553 21.606 2.0756 21.6056C2.04568 21.6053 2.01612 21.5991 1.9886 21.5873C1.96109 21.5756 1.93616 21.5585 1.91525 21.5371C1.89433 21.5158 1.87783 21.4905 1.8667 21.4627C1.85556 21.435 1.85001 21.4053 1.85036 21.3754C1.8507 21.3455 1.85693 21.316 1.8687 21.2885C1.88047 21.261 1.89754 21.2361 1.91894 21.2153C1.94034 21.1944 1.96565 21.1779 1.99343 21.1668C2.02403 21.1548 5.11377 19.9233 10.7272 18.1947C10.9396 18.1296 11.1554 18.0644 11.3766 17.9975L11.5484 17.9442C11.5543 17.942 11.5602 17.9402 11.5662 17.9384C11.6357 17.9186 11.7051 17.8975 11.7757 17.8762L11.8981 17.8391C11.9591 17.8206 12.0191 17.8024 12.0807 17.7855C12.6455 17.6139 13.2412 17.4385 13.8576 17.2605C14.994 16.9293 16.1699 16.5979 17.3518 16.2753C17.3554 16.274 17.3592 16.2731 17.3629 16.272C18.4121 15.9846 19.4736 15.7021 20.5178 15.4331C21.4508 15.1911 22.3214 14.9706 23.1793 14.759C23.7471 14.6178 24.3251 14.4773 24.9133 14.3373C26.2772 14.007 27.7008 13.6767 29.1433 13.3557C30.3508 13.0863 31.5486 12.8271 32.7031 12.5858C37.2248 11.6384 41.863 10.7824 46.4887 10.0413C80.4756 4.59422 133.654 2.10137 193.99 21.1612C194.042 21.1775 194.086 21.2119 194.115 21.2581C194.144 21.3042 194.155 21.3591 194.147 21.4128C194.139 21.4665 194.111 21.5155 194.07 21.5509C194.029 21.5863 193.976 21.6057 193.922 21.6057Z" fill="#BFC7D1"/>
<path id="Vector_15" d="M101.487 115.248C100.819 118.225 99.2186 120.912 96.9182 122.919C96.7496 123.065 96.581 123.206 96.4055 123.345C95.9794 123.383 95.5563 123.423 95.1363 123.463C94.7876 123.495 94.4435 123.529 94.1017 123.561L94.0402 123.568L93.9969 123.194L93.8237 121.683C93.1519 120.587 92.7355 119.355 92.6053 118.077C92.4751 116.799 92.6345 115.507 93.0718 114.299C93.6733 112.679 94.7626 111.247 95.8336 109.827C97.3125 107.865 98.7503 105.925 98.8027 103.533C99.5304 104.463 100.135 105.483 100.603 106.567C100.162 106.775 99.7655 107.066 99.4362 107.425C99.3428 107.528 99.2494 107.671 99.3132 107.794C99.3678 107.899 99.5046 107.924 99.6231 107.937C99.9079 107.967 100.195 107.997 100.48 108.026C100.708 108.051 100.936 108.074 101.163 108.099C101.439 109.003 101.626 109.931 101.722 110.871C101.875 112.334 101.796 113.811 101.487 115.248Z" fill="#1D4851"/>
<path id="Vector_16" d="M109.052 109.282C107.708 110.259 106.922 111.663 106.311 113.211C105.685 113.411 105.122 113.77 104.677 114.253C104.584 114.356 104.49 114.499 104.554 114.622C104.609 114.727 104.746 114.752 104.864 114.765C105.149 114.795 105.436 114.824 105.721 114.854C105.11 116.684 104.55 118.578 103.47 120.123C102.751 121.144 101.815 121.992 100.728 122.606C100.432 122.775 100.126 122.926 99.8123 123.059C98.6547 123.148 97.5191 123.243 96.4056 123.344C95.9795 123.383 95.5564 123.422 95.1363 123.462C94.7877 123.494 94.4436 123.528 94.1018 123.56C94.0995 123.435 94.0995 123.31 94.1018 123.185C94.1739 119.85 95.4021 116.643 97.5769 114.112C97.6794 113.994 97.7842 113.878 97.8913 113.761C98.9931 112.586 100.289 111.608 101.722 110.871C103.98 109.698 106.511 109.15 109.052 109.282Z" fill="#00A79B"/>
<path id="Vector_17" d="M95.5305 122.295L95.2684 123.069L95.1363 123.463C94.7876 123.494 94.4435 123.529 94.1017 123.56L94.0402 123.567C93.6619 123.606 93.2859 123.645 92.91 123.683C92.812 123.57 92.714 123.453 92.6183 123.335C90.2398 120.458 89.0981 116.758 89.4426 113.043C89.7872 109.327 91.5901 105.899 94.4572 103.508C94.1564 105.081 94.5073 106.587 95.0838 108.083C95.0223 108.108 94.9631 108.133 94.9061 108.16C94.465 108.368 94.0687 108.659 93.7394 109.018C93.646 109.121 93.5525 109.264 93.6163 109.387C93.671 109.492 93.8078 109.517 93.9263 109.53C94.2111 109.56 94.4982 109.59 94.7831 109.619C95.0109 109.644 95.2388 109.667 95.4667 109.692C95.5738 109.703 95.6809 109.715 95.788 109.726C95.8039 109.76 95.8176 109.792 95.8336 109.826C96.483 111.233 97.1825 112.646 97.5768 114.112C97.6756 114.48 97.7532 114.853 97.8092 115.23C97.9847 116.503 97.871 117.799 97.4765 119.022C97.082 120.245 96.4169 121.364 95.5305 122.295Z" fill="#00A79B"/>
<path id="Vector_18" d="M98.5539 117.141C98.3775 117.149 98.2029 117.103 98.0537 117.009C97.9044 116.914 97.7879 116.776 97.7198 116.614C97.6516 116.451 97.6352 116.271 97.6728 116.099C97.7103 115.926 97.8 115.77 97.9297 115.65C97.9514 115.564 97.967 115.502 97.9887 115.416C97.981 115.397 97.9732 115.378 97.9653 115.359C97.1723 113.471 92.1124 118.736 91.8936 120.511C91.7973 121.295 91.8379 122.091 92.0137 122.861C90.3747 119.29 89.5237 115.409 89.5182 111.48C89.5178 110.494 89.5727 109.509 89.6824 108.529C89.7731 107.726 89.899 106.929 90.06 106.137C90.9384 101.841 92.8245 97.8149 95.5634 94.3886C97.1298 94.4759 98.5025 94.2376 98.6351 91.2054C98.6586 90.666 99.0592 90.199 99.1474 89.6676C98.9979 89.6872 98.8459 89.6995 98.6963 89.7092C98.6498 89.7117 98.6007 89.7141 98.5542 89.7166L98.5366 89.7174C98.3723 89.7247 98.2093 89.6845 98.0673 89.6015C97.9253 89.5185 97.8104 89.3963 97.7363 89.2495C97.6623 89.1028 97.6323 88.9378 97.6499 88.7744C97.6675 88.6111 97.7321 88.4563 97.8357 88.3287C97.9003 88.2493 97.9649 88.17 98.0295 88.0907C98.1276 87.9683 98.2281 87.8483 98.3262 87.7259C98.3375 87.7142 98.3481 87.702 98.358 87.6891C98.4708 87.5495 98.5836 87.4124 98.6964 87.2728C98.4905 86.9537 98.2137 86.6864 97.8874 86.4918C96.7573 85.8306 95.1981 86.2885 94.3818 87.3096C93.563 88.3307 93.4086 89.7631 93.693 91.0389C93.9726 92.1244 94.4352 93.1545 95.0609 94.0849C94.9996 94.1633 94.9358 94.2392 94.8745 94.3176C93.7542 95.7565 92.7778 97.3016 91.9593 98.9308C92.1908 97.1239 89.3589 90.5984 88.2637 89.2162C86.9482 87.556 84.2506 88.2806 84.0188 90.3852C84.0166 90.4055 84.0144 90.4259 84.0123 90.4463C84.1749 90.5379 84.3342 90.6352 84.49 90.7382C84.6857 90.8688 84.8374 91.0554 84.9251 91.2736C85.0128 91.4918 85.0325 91.7314 84.9816 91.9609C84.9307 92.1905 84.8115 92.3993 84.6397 92.5601C84.468 92.7208 84.2516 92.826 84.0189 92.8619L83.9951 92.8655C81.8176 95.971 88.7981 104.054 90.5453 102.239C89.7229 104.567 89.2071 106.992 89.0108 109.453C88.8996 110.904 88.9061 112.363 89.0304 113.814L89.023 113.762C88.6348 110.602 81.9746 105.904 80.0297 106.296C78.9093 106.521 77.8058 106.47 77.9759 107.599C77.9787 107.617 77.9814 107.635 77.9842 107.653C78.2861 107.776 78.58 107.917 78.8643 108.076C79.0269 108.168 79.1862 108.265 79.342 108.368C79.5377 108.499 79.6894 108.686 79.7771 108.904C79.8648 109.122 79.8845 109.361 79.8336 109.591C79.7827 109.821 79.6635 110.029 79.4917 110.19C79.32 110.351 79.1036 110.456 78.8709 110.492L78.8471 110.496C78.8299 110.498 78.8152 110.501 78.7981 110.503C77.8069 113.91 85.1574 119.407 89.626 117.658H89.6285C90.0713 119.58 90.713 121.451 91.5431 123.241H98.3825C98.4071 123.165 98.4291 123.087 98.4512 123.011C97.8181 123.05 97.1826 123.013 96.5587 122.898C97.0661 122.276 97.5736 121.649 98.081 121.027C98.0923 121.016 98.103 121.003 98.1129 120.99C98.3703 120.672 98.6301 120.356 98.8875 120.038L98.8877 120.038C98.9014 119.062 98.7893 118.088 98.5541 117.141L98.5539 117.141ZM90.7218 101.752L90.7254 101.747L90.7218 101.756V101.752ZM89.2069 115.393L89.148 115.261C89.1505 115.165 89.1505 115.07 89.148 114.972C89.148 114.945 89.1431 114.918 89.1431 114.891C89.1652 115.06 89.1848 115.229 89.2093 115.398L89.2069 115.393Z" fill="#1D4851"/>
</g>
<defs>
  <clipPath id="clip0_4802_32717">
    <rect width="100%" height="100%" fill="white" />
  </clipPath>
</defs>
</svg>
