<svg width="25" height="24" viewBox="0 0 18 19" fill="none" xmlns="http://www.w3.org/2000/svg">
<g id="vuesax/outline/key-square">
<g id="key-square">
<path id="Vector" d="M11.25 17.5625H6.75C2.6775 17.5625 0.9375 15.8225 0.9375 11.75V7.25C0.9375 3.1775 2.6775 1.4375 6.75 1.4375H11.25C15.3225 1.4375 17.0625 3.1775 17.0625 7.25V11.75C17.0625 15.8225 15.3225 17.5625 11.25 17.5625ZM6.75 2.5625C3.2925 2.5625 2.0625 3.7925 2.0625 7.25V11.75C2.0625 15.2075 3.2925 16.4375 6.75 16.4375H11.25C14.7075 16.4375 15.9375 15.2075 15.9375 11.75V7.25C15.9375 3.7925 14.7075 2.5625 11.25 2.5625H6.75Z"/>
<path id="Vector_2" d="M6.60731 14.1877C6.55481 14.1877 6.49481 14.1877 6.44231 14.1727L5.54981 14.0527C5.00981 13.9777 4.53731 13.5127 4.45481 12.9577L4.32731 12.0502C4.27481 11.6902 4.42481 11.2327 4.68731 10.9627L6.39731 9.25273C6.14231 8.03773 6.50981 6.77773 7.40231 5.89273C8.83481 4.46023 11.1748 4.46023 12.6073 5.89273C13.3048 6.59023 13.6873 7.51273 13.6873 8.49523C13.6873 9.47773 13.3048 10.4077 12.6073 11.0977C11.7148 11.9827 10.4548 12.3502 9.24731 12.0952L7.52981 13.8052C7.31231 14.0377 6.94481 14.1877 6.60731 14.1877ZM10.0048 5.93773C9.35231 5.93773 8.69231 6.18523 8.19731 6.68773C7.52231 7.36273 7.28231 8.34523 7.55981 9.26023C7.61981 9.46273 7.56731 9.67273 7.41731 9.82273L5.48231 11.7577C5.46731 11.7802 5.43731 11.8627 5.43731 11.8927L5.56481 12.7927C5.57231 12.8377 5.65481 12.9202 5.69981 12.9277L6.59981 13.0552C6.63731 13.0477 6.71231 13.0327 6.73481 13.0102L8.67731 11.0677C8.82731 10.9177 9.04481 10.8727 9.23981 10.9327C10.1473 11.2177 11.1298 10.9777 11.8048 10.3027C12.2848 9.82273 12.5548 9.17773 12.5548 8.49523C12.5548 7.81273 12.2923 7.16773 11.8048 6.68773C11.3173 6.19273 10.6573 5.93773 10.0048 5.93773Z"/>
<path id="Vector_3" d="M7.83746 13.2725C7.69496 13.2725 7.55246 13.22 7.43996 13.1075L6.79496 12.4625C6.57746 12.245 6.57746 11.885 6.79496 11.6675C7.01246 11.45 7.37246 11.45 7.58996 11.6675L8.23496 12.3125C8.45246 12.53 8.45246 12.89 8.23496 13.1075C8.12996 13.22 7.98746 13.2725 7.83746 13.2725Z"/>
<path id="Vector_4" d="M10.0348 9.35021C9.92984 9.35021 9.83234 9.33521 9.74234 9.29771C9.65234 9.26021 9.56984 9.20021 9.50234 9.13271C9.35984 8.99021 9.27734 8.80271 9.27734 8.60021C9.27734 8.40521 9.35984 8.21021 9.50234 8.07521C9.67484 7.89521 9.93734 7.81271 10.1773 7.86521C10.2223 7.88021 10.2748 7.88771 10.3198 7.91021C10.3648 7.93271 10.4098 7.95521 10.4473 7.97771C10.4848 8.00771 10.5298 8.03771 10.5598 8.07521C10.7023 8.21021 10.7848 8.40521 10.7848 8.60021C10.7848 8.70521 10.7623 8.79521 10.7248 8.89271C10.6873 8.98271 10.6348 9.06521 10.5598 9.13271C10.4173 9.27521 10.2298 9.35021 10.0348 9.35021Z"/>
</g>
</g>
</svg>
