<svg width="24" height="24" viewBox="0 0 24 24" fill="none" xmlns="http://www.w3.org/2000/svg">
<path d="M9 11.11C8.83 11.11 8.66 11.08 8.5 11.01C8.04 10.81 7.75 10.36 7.75 9.87V2C7.75 1.59 8.09 1.25 8.5 1.25H15.5C15.91 1.25 16.25 1.59 16.25 2V9.85999C16.25 10.36 15.96 10.81 15.5 11C15.05 11.2 14.52 11.11 14.15 10.77L12 8.79999L9.84998 10.78C9.60998 11 9.31 11.11 9 11.11ZM12 7.21002C12.3 7.21002 12.61 7.31998 12.85 7.53998L14.75 9.28998V2.75H9.25V9.28998L11.15 7.53998C11.39 7.31998 11.7 7.21002 12 7.21002Z"/>
<path d="M17.5 14.75H13.25C12.84 14.75 12.5 14.41 12.5 14C12.5 13.59 12.84 13.25 13.25 13.25H17.5C17.91 13.25 18.25 13.59 18.25 14C18.25 14.41 17.91 14.75 17.5 14.75Z"/>
<path d="M17.5 18.75H9C8.59 18.75 8.25 18.41 8.25 18C8.25 17.59 8.59 17.25 9 17.25H17.5C17.91 17.25 18.25 17.59 18.25 18C18.25 18.41 17.91 18.75 17.5 18.75Z"/>
</svg>
