<svg width="381" height="387" viewBox="0 0 381 387" fill="none" xmlns="http://www.w3.org/2000/svg">
<g clip-path="url(#clip0_4802_33142)">
<path d="M342.423 405.051L334.347 405.051L330.506 373.932L342.425 373.933L342.423 405.051Z" fill="#FFB6B6"/>
<path d="M460.921 358.135L452.385 375.97L399.972 341.299L392.347 330.92L367.346 296.887L357.183 312.998L350.112 329.84C347.807 331.342 345.865 333.336 344.426 335.679C342.987 338.022 342.087 340.655 341.79 343.388L341.467 346.37L345.935 386.503L328.951 391.713L319.197 337.8L322.385 326.117L325.668 309.718L342.196 257.897H386.426L411.794 311.845L413.648 322.837L420.841 331.084L460.921 358.135Z" fill="#0D1E22"/>
<path d="M369.004 173.114L376.45 178.778L385.429 181.535C385.429 181.535 389.141 233.702 392.486 237.044C395.831 240.385 392.814 240.475 393.486 244.816C394.158 249.157 395.792 258.056 395.792 258.056C373.214 269.996 353.75 270.316 338.116 256.344C337.916 255.48 338.017 254.573 338.404 253.775C338.79 252.976 339.438 252.333 340.24 251.953C343.15 250.41 337.558 243.211 339.936 242.007C342.314 240.803 338.969 230.36 338.969 230.36L341.163 208.572L339.43 205.089L343.66 183.778L351.001 181.1L353.933 174.042L369.004 173.114Z" fill="#FF708F"/>
<path d="M373.668 265.832C373.635 264.89 373.809 263.952 374.177 263.085C374.546 262.217 375.101 261.44 375.802 260.81C376.504 260.18 377.335 259.711 378.238 259.436C379.141 259.161 380.093 259.088 381.027 259.22L391.52 238.844L397.366 249.221L386.505 266.98C386.178 268.533 385.292 269.912 384.015 270.856C382.738 271.801 381.159 272.244 379.577 272.102C377.994 271.961 376.519 271.245 375.43 270.089C374.341 268.933 373.714 267.419 373.668 265.832Z" fill="#FFB6B6"/>
<path d="M391.339 260.848L413.845 225.999L413.771 225.838C413.686 225.654 408.59 214.658 403.651 204.585C402.891 203.034 402.134 201.505 401.4 200.041C401.083 199.409 400.771 198.79 400.464 198.184C398.39 194.099 396.578 190.722 395.496 189.119C393.103 185.492 389.541 182.792 385.401 181.468L385.297 181.441L385.198 181.482C383.172 182.336 381.499 183.854 380.453 185.785C379.407 187.717 379.051 189.947 379.444 192.107C381.396 202.529 385.746 212.354 392.151 220.809L395.799 225.613L383.12 253.154L391.339 260.848Z" fill="#FF708F"/>
<path d="M313.948 127.265C314.568 127.976 315.024 128.814 315.284 129.72C315.545 130.626 315.603 131.578 315.456 132.509C315.308 133.441 314.958 134.328 314.43 135.109C313.902 135.89 313.208 136.546 312.399 137.031L317.091 159.462L306.009 155.078L303.253 134.45C302.528 133.037 302.346 131.409 302.743 129.872C303.14 128.335 304.088 126.997 305.406 126.111C306.724 125.226 308.322 124.854 309.896 125.067C311.471 125.279 312.912 126.062 313.948 127.265Z" fill="#FFB6B6"/>
<path d="M303.362 142.254L307.843 183.486L308.002 183.563C308.133 183.628 313.811 186.41 320.78 189.723C321.956 190.282 321.787 192.703 323.016 193.282C323.862 193.681 326.097 192.234 326.953 192.634C334.57 196.193 342.273 199.654 345.343 200.592C349.487 201.903 353.956 201.76 358.007 200.184L358.105 200.139L358.156 200.045C359.191 198.107 359.535 195.876 359.13 193.717C358.725 191.559 357.596 189.603 355.929 188.171C347.844 181.304 338.272 176.407 327.968 173.869L322.105 172.432L314.597 143.06L303.362 142.254Z" fill="#FF708F"/>
<path d="M361.066 170.778C369.2 170.778 375.793 164.19 375.793 156.064C375.793 147.938 369.2 141.351 361.066 141.351C352.932 141.351 346.339 147.938 346.339 156.064C346.339 164.19 352.932 170.778 361.066 170.778Z" fill="#FFB6B6"/>
<path d="M346.444 146.205C347.655 142.685 353.684 140.243 363.458 139.903C373.232 139.564 375.711 151.072 375.711 151.072C382.236 156.36 368.744 170.517 368.091 170.008L368.385 167.348C368.871 162.942 370.936 159.504 368.31 154.912L365.788 154.941C362.531 155.567 359.274 156.193 356.017 156.818L359.873 153.426L359.764 153.258C358.124 154.112 356.339 154.653 354.5 154.855C352.428 154.977 350.162 154.153 349.17 152.331C348.905 151.83 348.743 151.282 348.693 150.717C345.899 151.833 344.621 155.275 344.621 155.275C344.621 155.275 345.233 149.725 346.444 146.205Z" fill="#0D1E22"/>
<path d="M59.3362 147.087C59.1364 146.834 58.9212 146.594 58.6919 146.367C58.7479 146.29 58.804 146.206 58.86 146.129L59.3362 147.087Z" fill="#0D1E22"/>
<path d="M62.2001 206.265C59.791 210.54 54.9799 212.926 50.2107 214.094C44.8539 215.496 39.213 215.387 33.9144 213.779C33.2422 213.562 32.5698 213.311 31.9186 213.031C32.2317 212.2 32.4799 211.346 32.6609 210.477C32.9047 209.301 33.0267 208.103 33.0251 206.902C32.4944 207.936 31.807 208.882 30.9871 209.707C30.3547 210.371 29.6364 210.948 28.8512 211.421C26.4158 209.945 24.307 207.988 22.6534 205.67C22.7584 205.411 22.8635 205.152 22.9616 204.894C23.4701 203.541 23.8728 202.152 24.1661 200.738C24.564 198.825 24.7635 196.877 24.7614 194.923C23.8979 196.606 22.778 198.145 21.4418 199.485C21.0412 199.913 20.6157 200.318 20.1673 200.696C19.473 198.589 19.2046 196.365 19.3777 194.154C19.5508 191.943 20.162 189.788 21.1757 187.815C23.949 182.693 29.3274 179.65 34.1176 176.34C38.9147 173.031 43.7119 168.553 44.118 162.739C44.3911 158.814 42.5703 154.881 43.2987 151.019C43.605 149.391 44.3528 147.877 45.4606 146.644C46.5684 145.411 47.9938 144.505 49.5814 144.025C51.169 143.545 52.858 143.509 54.4644 143.922C56.0708 144.335 57.5329 145.181 58.6915 146.367C55.9743 150.215 53.2711 154.196 52.1716 158.772C51.0511 163.431 51.9686 168.896 55.6452 171.981C56.9058 173.045 58.4535 173.8 59.4269 175.13C60.7225 176.893 60.7295 179.244 60.9396 181.413C61.3597 185.632 62.7394 189.69 63.4817 193.867C64.2311 198.037 64.2731 202.564 62.2001 206.265Z" fill="#0D1E22"/>
<path d="M12.8154 379.771L19.2071 384.705L41.2966 362.422L31.8631 355.141L12.8154 379.771Z" fill="#A0616A"/>
<path d="M13.0874 374.951L23.6568 382.148L20.312 386.473L24.7915 400.516C25.0129 401.209 25.0065 401.955 24.7734 402.645C24.5402 403.335 24.0925 403.932 23.4956 404.349C22.8987 404.767 22.1838 404.983 21.4554 404.966C20.727 404.949 20.0231 404.699 19.4465 404.254L7.41803 394.968L8.65326 389.09L4.53522 392.743L0 389.242L13.0874 374.951Z" fill="#0D1E22"/>
<path d="M45.2422 159.518C45.2413 162.013 45.8534 164.47 47.0248 166.673C48.1962 168.877 49.891 170.759 51.9606 172.155C54.0302 173.552 56.4112 174.419 58.8946 174.681C61.378 174.943 63.8878 174.593 66.2039 173.66C68.5199 172.726 70.5712 171.24 72.1778 169.33C73.7844 167.42 74.8971 165.145 75.4183 162.705C75.9394 160.265 75.8531 157.734 75.1669 155.335C74.4807 152.936 73.2155 150.743 71.4825 148.946L71.4093 148.873C71.2873 148.745 71.1652 148.617 71.037 148.495L71.0347 148.495L71.0327 148.493L71.0314 148.491L71.031 148.489C70.8723 148.343 70.7136 148.196 70.5488 148.056C67.8638 145.703 64.09 143.148 60.2393 143.148C51.8119 143.148 45.2422 151.098 45.2422 159.518Z" fill="#0D1E22"/>
<path d="M132.199 151.691C132.272 152.504 132.166 153.323 131.888 154.09C131.61 154.858 131.167 155.555 130.59 156.133C130.013 156.711 129.316 157.155 128.548 157.435C127.781 157.714 126.961 157.823 126.148 157.752L88.3698 191.83L81.8687 181.571L121.047 151.3C121.257 149.942 121.958 148.708 123.018 147.832C124.078 146.955 125.422 146.498 126.797 146.546C128.172 146.595 129.481 147.145 130.476 148.093C131.472 149.041 132.085 150.321 132.199 151.691Z" fill="#A0616A"/>
<path d="M72.2242 202.116C72.2242 202.116 73.6298 204.709 78.4311 200.704C82.275 197.498 100.691 183.579 104.658 177.875C105.564 178.234 106.563 178.281 107.499 178.01C108.435 177.738 109.254 177.163 109.827 176.376L98.9563 166.865C95.7039 167.239 95.7736 169.422 96.1123 170.661L87.9127 174.373L66.7388 187.892L71.1748 200.259L72.2242 202.116Z" fill="#00A79B"/>
<path d="M51.7117 226.011L50.9199 229.778L50.2476 243.674L79.8482 245.299L78.929 223.927L76.0598 219.217L51.7117 226.011Z" fill="#A0616A"/>
<path d="M64.2572 175.826C71.3225 175.826 77.05 170.103 77.05 163.045C77.05 155.986 71.3225 150.264 64.2572 150.264C57.1919 150.264 51.4644 155.986 51.4644 163.045C51.4644 170.103 57.1919 175.826 64.2572 175.826Z" fill="#A0616A"/>
<path d="M41.545 210.186L41.4663 199.562C41.4645 195.74 42.7593 192.029 45.1395 189.036C47.5198 186.043 50.8449 183.944 54.5725 183.082L54.6208 183.071L57.1504 179.666L67.4278 180.693L69.3115 184.539L76.7587 188.969L79.6259 198.178C80.8696 199.006 81.9295 200.081 82.7398 201.336C83.5501 202.59 84.0935 203.998 84.3362 205.471C85.3097 211.684 80.9561 217.9 80.4382 218.612L79.1039 226.12L50.077 231.237L49.8413 231.267L41.545 210.186Z" fill="#00A79B"/>
<path d="M79.9114 160.766C78.4192 161.71 76.871 162.563 75.2753 163.32C73.6557 164.097 71.9617 164.709 70.219 165.146C69.7204 164.053 69.1103 163.014 68.3982 162.047C68.5814 163.193 68.5862 164.362 68.4122 165.51C65.5237 165.975 62.5653 165.733 59.7914 164.803L57.3823 160.766L57.2002 165.272C55.2043 165.636 53.2154 165.979 51.2195 166.335C51.1005 166.349 50.9814 166.377 50.8694 166.398C49.6298 160.815 51.3876 154.665 55.2954 150.943C57.2356 149.114 59.6558 147.874 62.2743 147.366C64.8928 146.858 67.6018 147.104 70.086 148.074C70.4012 148.2 70.7233 148.34 71.0314 148.487L71.0319 148.49L71.0334 148.492L71.0357 148.494L71.0384 148.494C71.2205 148.585 71.3746 148.802 71.5777 148.781C80.3176 147.808 80.5977 154.581 79.9114 160.766Z" fill="#0D1E22"/>
<path d="M58.6294 363.291L65.0309 368.212L87.0758 345.885L77.6278 338.623L58.6294 363.291Z" fill="#A0616A"/>
<path d="M59.4721 358.916L70.056 366.091L66.7199 370.423L71.2279 384.457C71.4506 385.15 71.4457 385.896 71.214 386.586C70.9822 387.276 70.5357 387.875 69.9397 388.293C69.3436 388.712 68.6292 388.929 67.9007 388.914C67.1722 388.898 66.4678 388.65 65.8904 388.206L53.8432 378.944L55.0665 373.064L50.9559 376.725L46.4136 373.233L59.4721 358.916Z" fill="#0D1E22"/>
<path d="M37.8569 336.041L37.8566 335.958L40.8905 330.735L37.7925 323.935L37.6996 306.467L38.2018 303.844C38.8772 300.317 38.6807 296.679 37.6292 293.245L37.5727 282.612C37.4638 279.948 41.5941 277.605 40.6309 275.385C31.5269 254.395 49.9276 238.382 50.0519 238.254L50.428 237.863L52.4682 239.407L54.41 239.41L80.6147 244.18L80.8039 244.532C81.8346 246.464 83.8237 253.121 83.9417 256.134C85.2477 257.644 100.124 274.843 101.447 276.038C110.383 284.116 115.499 297.486 117.754 304.738C118.314 306.53 118.427 308.431 118.083 310.277C117.739 312.122 116.948 313.856 115.78 315.327L81.9494 352.348L72.8453 343.952L91.1508 310.626L89.8307 307.245C87.4623 306.808 85.3189 305.564 83.7662 303.725L80.0595 299.329C79.0332 298.115 78.381 296.631 78.1819 295.054L75.9341 294.784L67.8821 286.338L62.2957 336.881L60.777 340.873L34.3281 371.939L23.123 364.942L37.8569 336.041Z" fill="#0D1E22"/>
<path d="M33.8176 119.016C33.3095 119.655 32.9478 120.398 32.758 121.192C32.5682 121.986 32.555 122.811 32.7192 123.611C32.8834 124.411 33.2211 125.164 33.7085 125.819C34.1959 126.475 34.8211 127.015 35.5401 127.402L27.1299 152.278L33.9973 178.639L45.071 173.637L38.2376 153.754L43.3501 124.812C43.9216 123.562 44.0144 122.146 43.6109 120.832C43.2073 119.518 42.3354 118.398 41.1604 117.684C39.9855 116.969 38.589 116.711 37.2357 116.956C35.8823 117.202 34.6662 117.935 33.8176 119.016Z" fill="#A0616A"/>
<path d="M43.9539 200.359C43.9539 200.359 41.353 201.754 39.5442 195.772C38.0961 190.983 28.2411 164.981 28.0635 158.038C27.1094 157.84 26.2482 157.331 25.6157 156.59C24.9832 155.85 24.6152 154.92 24.5698 153.948L38.8831 151.969C41.3947 154.067 40.1359 155.852 39.1713 156.702L44.0463 164.952L54.2357 187.224L45.8519 199.384L43.9539 200.359Z" fill="#00A79B"/>
<path d="M51.2168 166.334C52.6867 161.905 55.3223 157.954 58.8473 154.893C62.3723 151.833 66.6567 149.776 71.251 148.94C71.2693 148.934 71.3304 148.909 71.4097 148.873C71.4585 148.842 71.5195 148.812 71.5806 148.781C71.3975 148.678 71.2205 148.586 71.0374 148.495L71.0351 148.494L71.0331 148.493L71.0318 148.491L71.0313 148.489C70.8727 148.342 70.714 148.196 70.5492 148.056L70.0854 148.074C70.0854 148.074 53.7859 145.495 51.2168 166.334Z" fill="#FD6584"/>
</g>
<defs>
<clipPath id="clip0_4802_33142">
<rect width="480" height="413" fill="white" transform="translate(0 0.5)"/>
</clipPath>
</defs>
</svg>
