<svg width="24" height="24" viewBox="0 0 15 15" fill="none" xmlns="http://www.w3.org/2000/svg">
<g id="CaretUpDown">
<path id="Vector" d="M4.25437 4.86668C4.21884 4.78103 4.20951 4.68678 4.22755 4.59583C4.2456 4.50488 4.29021 4.42133 4.35574 4.35574L7.16824 1.54324C7.21177 1.49966 7.26347 1.46508 7.32038 1.44149C7.37728 1.4179 7.43828 1.40576 7.49988 1.40576C7.56148 1.40576 7.62248 1.4179 7.67938 1.44149C7.73629 1.46508 7.78799 1.49966 7.83152 1.54324L10.644 4.35574C10.7097 4.4213 10.7544 4.50485 10.7725 4.59583C10.7906 4.68681 10.7813 4.78112 10.7458 4.86681C10.7103 4.95251 10.6502 5.02575 10.573 5.07725C10.4958 5.12875 10.4051 5.1562 10.3124 5.15613H4.68738C4.59467 5.15611 4.50405 5.1286 4.42697 5.07708C4.3499 5.02556 4.28983 4.95234 4.25437 4.86668ZM10.3124 9.84363H4.68738C4.59462 9.84356 4.50392 9.87101 4.42676 9.92251C4.34961 9.97401 4.28947 10.0472 4.25396 10.1329C4.21846 10.2186 4.20917 10.313 4.22729 10.4039C4.24541 10.4949 4.29011 10.5785 4.35574 10.644L7.16824 13.4565C7.21177 13.5001 7.26347 13.5347 7.32038 13.5583C7.37728 13.5819 7.43828 13.594 7.49988 13.594C7.56148 13.594 7.62248 13.5819 7.67938 13.5583C7.73629 13.5347 7.78799 13.5001 7.83152 13.4565L10.644 10.644C10.7097 10.5785 10.7544 10.4949 10.7725 10.4039C10.7906 10.313 10.7813 10.2186 10.7458 10.1329C10.7103 10.0472 10.6502 9.97401 10.573 9.92251C10.4958 9.87101 10.4051 9.84356 10.3124 9.84363Z"/>
</g>
</svg>
