<svg width="24" height="24" viewBox="0 0 24 24" xmlns="http://www.w3.org/2000/svg" xmlns:xlink="http://www.w3.org/1999/xlink" version="1.1" fill="none">
    <g transform="scale(1,-1) translate(0,-24)">
        <path d="M 10.819712 4.481770 C 10.068677 3.305795 8.827171 2.625714 7.585664 2.625714 C 5.685086 2.625714 4.075725 4.155897 3.615908 6.224479 L 7.539682 6.224479 L 7.539682 6.932897 L 3.493290 6.932897 C 3.462635 7.216265 3.462635 7.556305 3.462635 7.825504 L 7.509028 7.825504 L 7.509028 8.533923 L 3.554599 8.533923 C 3.968434 10.687515 5.608450 12.302708 7.555009 12.302708 C 8.827171 12.302708 10.007368 11.622627 10.789058 10.446652 L 10.988312 10.149117 L 11.647383 10.517494 L 11.448129 10.815030 C 10.528495 12.189361 9.087734 13.025295 7.570337 13.025295 C 5.255923 13.025295 3.232727 11.126734 2.788237 8.548091 L 1.470094 8.548091 L 1.470094 7.839673 L 2.711601 7.839673 C 2.711601 7.570474 2.696273 7.230433 2.726928 6.947066 L 1.485421 6.947066 L 1.485421 6.238647 L 2.834219 6.238647 C 3.309363 3.900867 5.194614 1.917295 7.600991 1.917295 C 9.118388 1.917295 10.559149 2.753229 11.478784 4.127561 L 11.678038 4.425096 L 11.018966 4.793474 Z" transform="scale(1.000000,1.000000) translate(5.000000,4.000000)"></path>
        <path d="M 18.565473 10.471295 C 18.565473 14.920748 14.958479 18.527741 10.509027 18.527741 C 6.059575 18.527741 2.452581 14.920748 2.452581 10.471295 C 2.452581 6.021843 6.059575 2.414849 10.509027 2.414849 C 14.958479 2.414849 18.565473 6.021843 18.565473 10.471295 Z M 19.149027 10.471295 C 19.149027 5.699555 15.280767 1.831295 10.509027 1.831295 C 5.737287 1.831295 1.869027 5.699555 1.869027 10.471295 C 1.869027 15.243035 5.737287 19.111295 10.509027 19.111295 C 15.280767 19.111295 19.149027 15.243035 19.149027 10.471295 Z" transform="scale(1.000000,1.000000) translate(2.000000,1.000000)"></path>
    </g>
</svg>