<svg width="24" height="24" viewBox="0 0 24 24" fill="none" xmlns="http://www.w3.org/2000/svg">
<path d="M21.25 7.81V16.19C21.25 17.8608 20.7549 19.1045 19.9297 19.9297C19.1045 20.7549 17.8608 21.25 16.19 21.25H10.75C10.6119 21.25 10.5 21.1381 10.5 21V3C10.5 2.86193 10.6119 2.75 10.75 2.75H16.19C17.8608 2.75 19.1045 3.24514 19.9297 4.07033C20.7549 4.89552 21.25 6.13915 21.25 7.81Z" stroke=" #1D4851" stroke-width="1.5"/>
<path d="M7.81 2C8.05301 2 8.25 2.19699 8.25 2.44V21.56C8.25 21.803 8.05301 22 7.81 22V22C4.17 22 2 19.83 2 16.19V7.81C2 4.17 4.17 2 7.81 2V2Z" fill="#1D4851"/>
</svg>
