<svg width="24" height="24" viewBox="0 0 24 24" xmlns="http://www.w3.org/2000/svg" xmlns:xlink="http://www.w3.org/1999/xlink" fill="none">
    <g transform="scale(1,-1) translate(0,-24)">
        <path d="M 17.327000 1.958400 L 18.190500 2.226400 L 18.971900 2.650600 L 19.652600 3.212300 L 20.214300 3.893000 L 20.638500 4.674400 L 20.906500 5.537900 L 21.000000 6.464900 L 21.000000 8.681200 L 20.906500 9.608200 L 20.638500 10.471700 L 20.214300 11.253100 L 19.652600 11.933900 L 18.971900 12.495600 L 18.190500 12.919700 L 17.327000 13.187700 L 16.400000 13.281200 L 15.121200 13.281200 L 15.121200 12.081200 L 16.400000 12.081200 L 17.723400 11.814000 L 18.804100 11.085300 L 19.532800 10.004600 L 19.799900 8.681200 L 19.799900 6.464900 L 19.532800 5.141500 L 18.804100 4.060800 L 17.723400 3.332100 L 16.400000 3.064900 L 5.600000 3.064900 L 4.276500 3.332100 L 3.195800 4.060800 L 2.467100 5.141500 L 2.200000 6.464900 L 2.200000 8.681200 L 2.467100 10.004600 L 3.195800 11.085300 L 4.276500 11.814000 L 5.600000 12.081200 L 6.878700 12.081200 L 6.878700 13.281200 L 5.600000 13.281200 L 4.672900 13.187700 L 3.809400 12.919700 L 3.028000 12.495600 L 2.347300 11.933900 L 1.785600 11.253100 L 1.361400 10.471700 L 1.093400 9.608200 L 0.999900 8.681200 L 0.999900 6.464900 L 1.093400 5.537900 L 1.361400 4.674400 L 1.785600 3.893000 L 2.347300 3.212300 L 3.028000 2.650600 L 3.809400 2.226400 L 4.672900 1.958400 L 5.600000 1.864900 L 16.400000 1.864900 Z" transform="scale(1.000000,1.000000) translate(1.000000,2.000000)"></path>
        <path d="M 1.400000 1.726950 L 1.400000 11.566948 L 2.600000 11.566948 L 2.600000 1.726950 L 1.400000 1.726950 Z" transform="scale(1.000000,1.000000) translate(10.000000,8.000000)"></path>
        <path d="M 1.602098 2.774845 L 4.599221 6.510478 C 4.842845 6.814132 5.306661 6.808964 5.543459 6.499958 L 8.406152 2.764325 C 8.607711 2.501303 8.557886 2.124686 8.294864 1.923126 C 8.031842 1.721567 7.655224 1.771393 7.453665 2.034415 L 4.590972 5.770047 L 5.535210 5.759528 L 2.538087 2.023895 C 2.330718 1.765429 1.953084 1.724007 1.694617 1.931376 C 1.436151 2.138745 1.394729 2.516379 1.602098 2.774845 Z" transform="scale(1.000000,1.000000) translate(7.000000,14.000000)"></path>
    </g>
</svg>