<svg width="24" height="24" viewBox="0 0 24 24" fill="none" xmlns="http://www.w3.org/2000/svg">
  <g id="vuesax/bold/warning">
    <g id="warning">
      <path id="Vector" d="M19.5095 5.84988L13.5694 2.41987C12.5994 1.85988 11.3994 1.85988 10.4194 2.41987L4.48949 5.84988C3.51949 6.40987 2.91949 7.44987 2.91949 8.57988V15.4199C2.91949 16.54 3.51949 17.5799 4.48949 18.1499L10.4294 21.5799C11.3994 22.1399 12.5994 22.1399 13.5794 21.5799L19.5095 18.1499C20.4795 17.5899 21.0795 16.5499 21.0795 15.4199V8.57988C21.0795 7.44987 20.4795 6.40987 19.5095 5.84988ZM11.2495 7.74988C11.2495 7.33988 11.5895 6.99988 11.9995 6.99988C12.4095 6.99988 12.7495 7.33988 12.7495 7.74988V12.9999C12.7495 13.4099 12.4095 13.7499 11.9995 13.7499C11.5895 13.7499 11.2495 13.4099 11.2495 12.9999V7.74988ZM12.9194 16.6299C12.8694 16.7499 12.7994 16.8599 12.7094 16.9599C12.5194 17.1499 12.2694 17.2499 11.9995 17.2499C11.8695 17.2499 11.7395 17.2199 11.6195 17.1699C11.4895 17.1199 11.3895 17.0499 11.2895 16.9599C11.1995 16.8599 11.1295 16.7499 11.0795 16.6299C11.0495 16.5099 11.0495 16.3799 11.0495 16.2499C11.0495 15.9899 11.1995 15.7399 11.3895 15.5399C11.4895 15.4499 11.5895 15.3799 11.6195 15.3299C11.9895 15.1699 12.4295 15.2599 12.7094 15.5399C12.7994 15.6399 12.8694 15.7499 12.9194 15.8799C12.9594 16.0099 12.9794 16.1399 12.9794 16.2499C12.9794 16.3799 12.9594 16.5099 12.9194 16.6299Z"/>
    </g>
  </g>
</svg>
