<svg version="1.1" xmlns="http://www.w3.org/2000/svg" style="display: block;" viewBox="0 0 2048 2048" width="1024" height="1024" preserveAspectRatio="none">
<defs>
	<linearGradient id="Gradient1" gradientUnits="userSpaceOnUse" x1="870.114" y1="1146.05" x2="1136.92" y2="957.012">
		<stop class="stop0" offset="0" stop-opacity="1" stop-color="rgb(8,94,161)"/>
		<stop class="stop1" offset="1" stop-opacity="1" stop-color="rgb(4,175,225)"/>
	</linearGradient>
	<linearGradient id="Gradient2" gradientUnits="userSpaceOnUse" x1="848.347" y1="775.902" x2="1078.6" y2="1093.24">
		<stop class="stop0" offset="0" stop-opacity="1" stop-color="rgb(6,107,171)"/>
		<stop class="stop1" offset="1" stop-opacity="1" stop-color="rgb(2,179,229)"/>
	</linearGradient>
	<linearGradient id="Gradient3" gradientUnits="userSpaceOnUse" x1="152.428" y1="2059.64" x2="157.572" y2="2010.48">
		<stop class="stop0" offset="0" stop-opacity="1" stop-color="rgb(157,156,156)"/>
		<stop class="stop1" offset="1" stop-opacity="1" stop-color="rgb(211,210,209)"/>
	</linearGradient>
</defs>
<path transform="translate(0,0)" fill="rgb(244,244,241)" d="M 0 0 L 2048 0 L 2048 2048 L 617.689 2048 L 0 2048 L 0 1962.65 L 0 0 z"/>
<path transform="translate(0,0)" fill="url(#Gradient3)" d="M 0 1962.65 C 0.823661 1963.55 1.64732 1964.45 2.47098 1965.35 C 3.96447 1976.68 2.59419 1997.02 3.58873 2007.51 C 7.6879 2007.53 28.9271 2008.15 30.8176 2007.7 C 30.8584 2004.79 30.276 2002.04 31.724 2000.35 C 36.1933 2002.48 38.1013 2007.3 39.7145 2011.95 L 40.3081 2013.71 C 43.2473 2009.91 43.9063 2003.05 48.5232 2000.78 C 51.4716 2002.4 50.3489 2003.78 51.9281 2008.53 L 52.9347 2006.98 C 57.9098 2001.75 63.0356 2004.09 67.6472 2007.98 L 68.7313 2010.72 C 69.7541 2009.41 69.4364 2010.07 69.8474 2008.84 L 70.9429 2006.94 C 74.2784 2004.27 76.1494 2004.64 80.6713 2004.31 L 81.116 1999.92 L 82.9889 1999.54 C 85.5384 2001.91 85.4972 2004.8 85.4913 2008.3 C 90.2042 2005.88 94.6705 2001.65 99.5695 2006.52 C 102.194 2010.82 100.413 2009.61 104.664 2010.87 C 107.532 2009.42 108.267 2007.47 109.947 2004.68 L 111.093 2004.84 C 111.579 2007.63 111.651 2007.75 111.451 2010.56 L 111.003 2007.49 C 111.183 2011.75 111.044 2014.31 112.279 2018.35 L 113.791 2019.74 C 116.114 2018.15 117.378 2013.84 118.72 2010.8 L 119.727 2011.16 C 120.357 2014.13 120.597 2017.71 122.668 2019.57 C 127.473 2016.66 126.023 2011.55 129.995 2007.5 C 128.245 2007.53 128.947 2007.84 127.814 2006.76 C 130.703 2004.95 130.507 2005.1 133.948 2005.13 L 132.839 2002.54 L 129.449 2003.49 L 129.234 2001.22 C 131.982 1999.53 130.427 2000.03 134.242 2000.5 L 135.319 2001.54 L 134.133 2004.32 L 135.443 2004.88 L 137.819 2002.49 L 140.241 2002.62 C 142.25 2005.19 142.319 2004.66 143 2007.6 L 144.595 2006.57 C 144.656 2004.04 144.854 2002.96 145.6 2000.54 L 148.212 2000.71 C 149.087 2002.43 149.215 2002.85 149.565 2004.67 C 151.444 2004.72 152.571 2004.73 154.478 2004.62 L 156.097 2004.52 C 160.178 2007.65 159.247 2015.13 164.26 2016.32 C 171.004 2017.91 172.121 2010.6 173.738 2005.64 C 177.958 1992.69 179.746 1982.3 195.979 1987.49 C 199.097 1993.85 192.093 1998.73 192.322 2004.51 C 197.118 2005.55 201.204 2005.37 203.321 2009.92 C 202.865 2013.08 201.498 2014.22 199.471 2016.76 L 198.63 2017.81 L 199.009 2019.02 L 201.604 2019.35 C 202.686 2017.2 209.73 2004.2 209.74 2003.29 C 205.324 2002.74 201.474 2003.38 198.566 2001.4 C 198.399 1997.67 201.42 1992.7 203.086 1988.72 C 207.565 1985.79 212.566 1986.52 217.974 1987.14 L 217.954 1988.49 L 219.075 1988.66 C 234.587 1985.99 236.899 2015.26 219.231 2019.33 L 218.562 2020.51 C 225.125 2022.61 232.402 2022.74 239.386 2023.81 C 249.046 2025.29 258.616 2027.31 268.051 2029.86 C 279.172 2032.84 308.047 2044.24 316.285 2044.46 C 340.454 2045.1 367.233 2044.77 391.655 2044.83 L 551.357 2044.91 C 560.489 2044.9 607.469 2043.97 613.053 2046.17 L 612.081 2046.31 L 617.689 2048 L 0 2048 L 0 1962.65 z"/>
<path transform="translate(0,0)" fill="rgb(254,253,254)" d="M 199.823 2000.86 C 204.4 1987.61 204.906 1988.15 217.954 1988.49 L 219.075 1988.66 C 219.73 1988.96 220.384 1989.26 221.039 1989.56 C 230.749 1993.39 234.421 2003.8 226.458 2011.84 C 218.733 2019.65 212.842 2019.67 202.615 2020.13 C 206.424 2013.16 209.825 2007.72 214.151 2001.03 L 199.823 2000.86 z"/>
<path transform="translate(0,0)" fill="rgb(227,227,227)" d="M 40.3081 2013.71 C 43.2473 2009.91 43.9063 2003.05 48.5232 2000.78 C 51.4716 2002.4 50.3489 2003.78 51.9281 2008.53 L 52.9347 2006.98 C 59.3292 2005.86 64.5914 2005 68.4614 2011.42 C 68.7769 2016.76 66.8238 2019.76 61.4302 2020.61 C 57.208 2019.66 56.5693 2018.87 52.9253 2016.27 C 46.8589 2018.06 53.1777 2021.06 47.6562 2019.26 C 45.663 2015.89 45.8745 2015.81 45.6213 2012.05 L 44.1549 2014.38 L 45.1668 2015.42 L 43.3934 2015.71 C 42.3539 2017.94 41.4314 2020.02 40.2422 2022.18 C 38.5655 2017.83 36.95 2013.46 35.3963 2009.06 C 34.9534 2012.76 34.9338 2015.65 33.2231 2018.94 C 30.9548 2015.23 31.7941 2002.81 31.9643 1998.11 C 34.0494 2002.64 37.1145 2010.2 40.3081 2013.71 z"/>
<path transform="translate(0,0)" fill="rgb(198,197,196)" d="M 57.576 2008.66 C 60.0838 2007.59 62.9818 2008.76 64.0412 2011.27 C 65.1006 2013.78 63.9184 2016.68 61.4037 2017.73 C 58.9004 2018.77 56.0223 2017.6 54.9677 2015.1 C 53.9131 2012.6 55.0795 2009.72 57.576 2008.66 z"/>
<path transform="translate(0,0)" fill="rgb(227,227,227)" d="M 70.9429 2006.94 C 75.3378 2006.3 76.6328 2006.23 81.0673 2006.45 C 81.8205 2004.69 82.1082 2003.82 82.6507 2001.98 L 83.5596 2002.13 C 84.1174 2006.62 84.9443 2015.06 83.16 2019.25 C 80.3668 2021.15 80.5634 2021.33 77.2562 2021.39 C 70.3083 2018.78 69.0469 2015.94 69.8474 2008.84 L 70.9429 2006.94 z"/>
<path transform="translate(0,0)" fill="rgb(198,197,196)" d="M 74.5788 2008.64 C 76.9642 2007.46 79.8531 2008.37 81.1405 2010.7 C 82.428 2013.02 81.6598 2015.95 79.3956 2017.35 C 77.833 2018.31 75.8675 2018.34 74.2803 2017.41 C 72.6931 2016.49 71.7416 2014.77 71.804 2012.94 C 71.8664 2011.1 72.9326 2009.45 74.5788 2008.64 z"/>
<path transform="translate(0,0)" fill="rgb(244,244,241)" d="M 99.1393 2019.34 C 92.4245 2020.59 89.1564 2020.97 86.6124 2013.76 C 87.811 2005.65 93.0188 2006.18 99.5695 2006.52 C 100.208 2010.49 100.974 2011.64 98.1312 2014.24 C 94.9857 2013.91 94.5769 2013.73 91.3759 2014.24 L 90.1094 2016.41 L 90.1163 2016.32 C 93.1971 2018.95 93.1932 2015.97 99.4719 2017.01 L 99.1393 2019.34 z"/>
<path transform="translate(0,0)" fill="rgb(198,197,196)" d="M 143 2007.6 L 144.595 2006.57 C 144.656 2004.04 144.854 2002.96 145.6 2000.54 L 146.075 2001.65 C 145.935 2007.75 145.404 2013.43 146.97 2019.32 L 142.848 2020.14 C 139.708 2015.46 138.592 2014.72 140.566 2008.74 L 143 2007.6 z"/>
<path transform="translate(0,0)" fill="rgb(244,244,241)" d="M 146.075 2001.65 C 147.491 2003.48 147.663 2003.7 148.677 2005.76 C 156.853 2007.04 160.704 2009.58 157.471 2019.39 L 156.255 2018.63 C 156.202 2014.79 156.276 2013.25 155.487 2009.55 C 152.192 2007.4 153.946 2007.86 150.049 2008.06 C 146.081 2012.34 149.573 2014.53 146.97 2019.32 C 145.404 2013.43 145.935 2007.75 146.075 2001.65 z"/>
<path transform="translate(0,0)" fill="rgb(227,227,227)" d="M 135.443 2004.88 L 137.819 2002.49 L 140.241 2002.62 C 142.25 2005.19 142.319 2004.66 143 2007.6 L 140.566 2008.74 C 138.592 2014.72 139.708 2015.46 142.848 2020.14 C 140.134 2020.08 141.04 2020.22 138.499 2019.37 C 135.741 2015.3 138.169 2010.89 135.443 2004.88 z"/>
<path transform="translate(0,0)" fill="rgb(227,227,227)" d="M 129.995 2007.5 C 128.245 2007.53 128.947 2007.84 127.814 2006.76 C 130.703 2004.95 130.507 2005.1 133.948 2005.13 C 134.091 2010.01 134.64 2013.71 132.972 2018.23 L 131.705 2018.11 C 130.001 2014.11 130.224 2011.94 129.995 2007.5 z"/>
<path transform="translate(0,0)" fill="rgb(254,253,254)" d="M 183.015 1988.49 L 196.474 1988.5 C 193.869 1994.68 191.549 2001.18 189.208 2007.48 L 201.644 2007.87 L 193.296 2028.25 C 190.371 2024.71 193.527 2024.17 191.053 2020.7 C 185.459 2019.5 175.686 2019.93 169.589 2019.97 C 172.446 2011.79 178.949 1995.89 183.015 1988.49 z"/>
<path transform="translate(0,0)" fill="url(#Gradient2)" d="M 877.639 1163.08 C 868.995 1196.56 854.679 1217.06 831.292 1241.8 C 800.758 1274.36 770.888 1307.19 740.832 1340.22 C 723.41 1359.36 696.625 1352.79 696.923 1325.25 C 697.072 1311.53 697.262 1297.48 697.25 1283.7 L 697.333 1151.79 L 697.156 1059.82 C 697.148 1039.25 696.796 1012.99 698.82 992.806 C 701.615 967.035 708.216 941.822 718.405 917.987 C 746.813 850.49 800.988 797.125 868.905 769.737 C 895.305 759.308 923.082 752.776 951.363 750.346 C 975.489 748.385 1003.45 749.213 1028.02 749.223 L 1149.89 749.185 L 1305.67 749.111 C 1327.26 749.126 1349.43 747.806 1370.92 748.773 C 1375.86 748.995 1380.79 749.891 1385.31 751.965 C 1390.49 754.345 1396.11 758.75 1397.89 764.406 C 1399.33 769 1398.25 773.732 1396.05 777.896 C 1390.17 789.05 1346.2 833.499 1334.11 846.037 C 1230.63 953.308 1151.6 940.073 1015.94 939.943 C 993.107 939.921 963.399 936.897 941.878 943.846 C 922.195 950.202 903.415 965.457 893.946 983.877 C 889.619 995.101 884.283 1007.77 883.9 1019.87 C 882.283 1027.92 882.748 1049.27 882.61 1058.5 C 882.041 1096.34 884.432 1125.35 877.639 1163.08 z"/>
<path transform="translate(0,0)" fill="url(#Gradient1)" d="M 910.951 983.7 C 951.543 982.403 1000.21 983.843 1041.74 983.798 L 1113.45 983.72 C 1125.79 983.688 1140.69 983.142 1152.69 983.753 C 1161.45 984.601 1166.29 985.23 1172.52 992.204 C 1180.15 1000.75 1180.4 1017.82 1174.59 1027.24 C 1167.41 1045.8 1107.08 1105.01 1090.71 1117.37 C 1076.16 1128.46 1060.28 1137.7 1043.44 1144.88 C 1003.67 1162.31 965.637 1163.56 923.324 1163.32 C 908.051 1163.24 892.984 1163.74 877.639 1163.08 C 884.432 1125.35 882.041 1096.34 882.61 1058.5 C 882.748 1049.27 882.283 1027.92 883.9 1019.87 C 884.283 1007.77 889.619 995.101 893.946 983.877 L 910.951 983.7 z"/>
<path transform="translate(0,0)" fill="rgb(13,85,144)" d="M 893.946 983.877 L 910.951 983.7 L 918.498 984.775 C 916.977 988.694 903.671 995.409 898.756 1000.31 C 890.798 1008.25 890.006 1010.97 883.9 1019.87 C 884.283 1007.77 889.619 995.101 893.946 983.877 z"/>
<path transform="translate(0,0)" fill="rgb(2,182,231)" d="M 1152.69 983.753 C 1161.45 984.601 1166.29 985.23 1172.52 992.204 C 1180.15 1000.75 1180.4 1017.82 1174.59 1027.24 C 1174.52 1023.83 1175.29 1021.26 1174.95 1017.25 C 1175.31 1007.31 1166.95 1008.68 1164.36 1002.59 C 1160.27 992.955 1160.52 991.514 1152.69 983.753 z"/>
<path transform="translate(0,0)" fill="rgb(13,85,144)" d="M 1033.2 1230.09 C 1062.29 1229.64 1059.28 1272.12 1042.82 1278.16 C 1037.73 1280 1032.11 1279.76 1027.19 1277.48 C 1024.77 1276.36 1026.04 1276.53 1023.35 1276.48 L 1023.53 1285.25 C 1023.73 1290.13 1025.12 1294.8 1020.99 1297.75 C 1017.09 1297.76 1017.62 1298.32 1014.63 1296.68 C 1012.83 1282.56 1014.38 1248.98 1014.93 1233.63 C 1015.01 1231.25 1015.46 1231.64 1017.6 1230.16 C 1022.49 1231.63 1018.83 1232.39 1023.23 1234.6 L 1033.2 1230.09 z"/>
<path transform="translate(0,0)" fill="rgb(244,244,241)" d="M 1031.13 1236.87 C 1050.26 1237.49 1050.11 1261.71 1037.72 1272.81 C 1021.02 1275.22 1020.72 1258.24 1023.31 1246.74 C 1024.68 1240.62 1026.13 1240.11 1031.13 1236.87 z"/>
<path transform="translate(0,0)" fill="rgb(13,85,144)" d="M 1146.24 1211.13 C 1149.66 1211.11 1149.95 1210.67 1152.76 1212.12 C 1153.73 1220.31 1153.84 1269.99 1152.8 1277.43 L 1150.38 1279.12 C 1146.85 1278.5 1147.56 1278.2 1144.43 1275.16 C 1136.1 1279.95 1132.33 1281.18 1122.65 1277.12 C 1103.79 1260.87 1112.12 1217.3 1145.03 1234.99 C 1144.94 1228.63 1143.34 1215.96 1146.24 1211.13 z"/>
<path transform="translate(0,0)" fill="rgb(244,244,241)" d="M 1128.64 1238.05 L 1130.57 1237.92 C 1138.26 1237.42 1139.28 1238.17 1145.12 1243.29 C 1144.62 1255.58 1149.26 1264.97 1137.73 1271.98 C 1116.91 1273.89 1118.18 1248.5 1128.64 1238.05 z"/>
<path transform="translate(0,0)" fill="rgb(13,85,144)" d="M 913.322 1215.9 C 926.65 1215.43 939.662 1214.46 952.239 1218.85 C 959.794 1226.27 964.159 1237.78 955.748 1246.75 C 949.201 1253.74 943.081 1254.12 934.099 1254.36 L 922.452 1254.6 C 922.477 1260.03 923.277 1273.78 920.56 1277.96 C 917.756 1278.2 915.989 1278.74 913.712 1277.23 C 912.14 1265.84 913.205 1229.25 913.322 1215.9 z"/>
<path transform="translate(0,0)" fill="rgb(244,244,241)" d="M 922.519 1222.63 C 935.694 1222.32 963.423 1223.83 946.708 1244.43 C 938.513 1248.43 931.796 1247.67 922.826 1247.45 C 922.276 1239.45 922.49 1230.7 922.519 1222.63 z"/>
<path transform="translate(0,0)" fill="rgb(13,85,144)" d="M 981.949 1230.06 C 993.756 1229.73 996.178 1230.86 1004.08 1239.79 C 1005.29 1245.2 1006 1251.5 1006.79 1257.04 C 996.184 1257.06 985.582 1256.99 974.981 1256.83 C 975.305 1258.52 975.656 1260.21 976.034 1261.9 C 978.549 1272.93 986.181 1274.55 996.073 1271.02 C 998.715 1269.49 999.668 1268.56 1002.69 1268.83 L 1003.73 1270.48 C 1002.75 1273.74 999.986 1276.72 996.837 1277.92 C 966.022 1289.62 952.603 1243.44 981.949 1230.06 z"/>
<path transform="translate(0,0)" fill="rgb(244,244,241)" d="M 983.936 1237.02 C 991.15 1237.16 999.518 1240.36 997.299 1249.17 C 994.073 1251.81 994.713 1250.92 989.342 1250.94 C 984.891 1250.74 981.269 1251.03 977.348 1249.09 C 973.369 1243.58 979.46 1240.14 983.936 1237.02 z"/>
<path transform="translate(0,0)" fill="rgb(13,85,144)" d="M 1181.16 1230.11 C 1200.3 1230 1203.95 1240.34 1204.05 1257.33 C 1198.12 1257.16 1175.62 1254.65 1172.74 1259.11 C 1173.12 1272.31 1187.06 1275.11 1197.67 1268.6 L 1199.59 1268.09 L 1201.29 1269.26 L 1201.55 1271.24 C 1197.38 1279.39 1186.99 1280.45 1179.03 1278.37 C 1164.63 1274.63 1159.96 1258.41 1164.87 1245.58 C 1168.31 1236.58 1172.71 1233.74 1181.16 1230.11 z"/>
<path transform="translate(0,0)" fill="rgb(244,244,241)" d="M 1181.31 1236.94 C 1188.43 1236.82 1198.65 1243.2 1193.52 1249.95 L 1188.94 1250.29 C 1183.61 1250.39 1173.23 1252.2 1173.56 1244.92 C 1175.99 1240.81 1177.49 1240.02 1181.31 1236.94 z"/>
<path transform="translate(0,0)" fill="rgb(13,85,144)" d="M 1066.56 1220.3 C 1069.91 1220.15 1072.8 1219.58 1075.37 1221.53 C 1075.08 1225.92 1073.54 1225.37 1075.09 1229.55 C 1078.01 1231.84 1077.8 1231.07 1082.36 1231.34 L 1083.67 1232.95 C 1083.53 1237.22 1084.4 1235.76 1082.03 1238.04 C 1079.22 1237.97 1078.37 1237.74 1075.69 1238.6 C 1074.32 1244.2 1075.08 1262.61 1075.41 1268.93 C 1079.23 1274.18 1082.29 1268.09 1085.67 1276.47 C 1082.94 1279.64 1078.11 1280.21 1074.34 1279.07 C 1057.5 1274.01 1072.09 1250.8 1064.05 1239.33 C 1059.22 1236.68 1059.65 1237.99 1059.33 1232.84 C 1061.26 1231.01 1061.48 1231.27 1064.15 1230.19 C 1066.94 1226.44 1066.16 1225.5 1066.56 1220.3 z"/>
<path transform="translate(0,0)" fill="rgb(13,85,144)" d="M 1093.99 1230.76 C 1097.09 1230.73 1099.27 1230.31 1101.8 1231.96 C 1103.17 1240.59 1102.44 1268.53 1102.13 1278.44 C 1098.82 1278.38 1096.69 1278.69 1093.83 1277.07 C 1092.85 1268.93 1093.86 1240.4 1093.99 1230.76 z"/>
<path transform="translate(0,0)" fill="rgb(254,253,254)" d="M 331.716 2005.31 C 333.832 2003.02 334.878 2001.31 337.873 2000.7 C 339.064 2003.59 338.728 2002.55 338.922 2005.8 L 340.472 2006.43 C 342.665 2004.44 342.92 2003.69 344.449 2001.18 L 346.529 2000.35 L 348.595 2001.56 C 347.965 2002.98 347.609 2003.69 346.893 2005.05 L 347.263 2006.59 C 347.668 2008.34 347.694 2007.67 347.554 2008.73 C 348.578 2013.12 349.336 2019.06 345.397 2022.31 C 342.272 2021.8 343.636 2022.44 341.253 2020.14 C 341.144 2016.99 341.414 2013.56 340.144 2010.92 L 338.966 2011.87 C 339.149 2014.82 339.288 2016.52 339.058 2019.52 C 335.746 2020.47 327.377 2021.41 324.252 2020.41 C 323.763 2016.3 324.467 2016.21 322.225 2013.77 L 322.301 2013.3 L 324.607 2012.65 C 325.044 2010.92 325.25 2010 325.518 2008.2 L 325.72 2006.75 L 327.837 2005.87 C 329.024 2005.66 330.588 2005.27 331.716 2005.31 z"/>
<path transform="translate(0,0)" fill="rgb(227,227,227)" d="M 327.837 2005.87 C 329.024 2005.66 330.588 2005.27 331.716 2005.31 C 332.182 2009.49 332.558 2017.01 334.179 2020.43 C 336.646 2018.5 338.339 2012.37 339.922 2009.04 L 341.403 2010.23 C 341.681 2013.15 341.939 2016.06 342.177 2018.98 L 343.959 2020.03 L 345.967 2019.43 C 347.048 2016.51 347.248 2011.99 347.554 2008.73 C 348.578 2013.12 349.336 2019.06 345.397 2022.31 C 342.272 2021.8 343.636 2022.44 341.253 2020.14 C 341.144 2016.99 341.414 2013.56 340.144 2010.92 L 338.966 2011.87 C 339.149 2014.82 339.288 2016.52 339.058 2019.52 C 335.746 2020.47 327.377 2021.41 324.252 2020.41 C 323.763 2016.3 324.467 2016.21 322.225 2013.77 L 322.301 2013.3 L 324.607 2012.65 C 325.044 2010.92 325.25 2010 325.518 2008.2 L 325.72 2006.75 L 327.837 2005.87 z"/>
<path transform="translate(0,0)" fill="rgb(254,253,254)" d="M 327.837 2005.87 C 331.572 2009.46 331.133 2016 327.832 2019.87 L 326.057 2019.44 C 324.375 2016.59 324.673 2015.96 324.607 2012.65 C 325.044 2010.92 325.25 2010 325.518 2008.2 L 325.72 2006.75 L 327.837 2005.87 z"/>
<path transform="translate(0,0)" fill="rgb(254,253,254)" d="M 269.449 2006.45 L 281.715 2006.35 C 281.777 2013.47 283.485 2021.63 277.745 2026.27 C 273.696 2026.9 273.412 2026.66 269.37 2025.44 L 268.433 2023.45 C 269.958 2019.5 272.9 2024.57 277.233 2022.08 C 275.68 2020.1 271.178 2018.61 268.585 2017.22 C 266.711 2012.83 267.647 2011.05 269.449 2006.45 z"/>
<path transform="translate(0,0)" fill="rgb(254,253,254)" d="M 307.354 2019.54 C 307.352 2014.21 307.397 2008.89 307.488 2003.57 C 309.364 2001.22 308.296 2002.26 311.583 2001.07 C 318.817 2001.74 321.385 2007.17 322.301 2013.3 L 322.225 2013.77 C 318.481 2020.83 314.21 2019.73 307.354 2019.54 z"/>
<path transform="translate(0,0)" fill="rgb(227,227,227)" d="M 310.986 2005.43 C 314.138 2005.89 313.961 2005.79 316.714 2007.37 C 318.598 2010.1 318.103 2012.09 317.981 2015.47 C 315.118 2016.15 314.85 2016.54 312.116 2015.77 C 310.17 2012.53 310.939 2009.74 310.986 2005.43 z"/>
<path transform="translate(0,0)" fill="rgb(254,253,254)" d="M 288.589 2006.7 C 290.874 2005.57 293.592 2005.77 295.689 2007.22 C 297.786 2008.67 298.93 2011.14 298.678 2013.68 C 298.426 2016.21 296.817 2018.41 294.476 2019.42 C 290.987 2020.92 286.935 2019.37 285.34 2015.93 C 283.744 2012.48 285.185 2008.39 288.589 2006.7 z"/>
<path transform="translate(0,0)" fill="rgb(254,253,254)" d="M 392.671 2006.83 C 394.874 2005.61 397.563 2005.67 399.713 2006.98 C 401.862 2008.29 403.14 2010.66 403.059 2013.18 C 402.979 2015.69 401.553 2017.97 399.325 2019.15 C 395.928 2020.94 391.724 2019.66 389.9 2016.28 C 388.075 2012.9 389.311 2008.69 392.671 2006.83 z"/>
<path transform="translate(0,0)" fill="rgb(254,253,254)" d="M 254.683 2006.85 C 258.08 2004.98 262.349 2006.24 264.191 2009.65 C 266.033 2013.06 264.743 2017.32 261.317 2019.13 C 257.929 2020.93 253.728 2019.66 251.907 2016.28 C 250.085 2012.91 251.325 2008.7 254.683 2006.85 z"/>
<path transform="translate(0,0)" fill="rgb(254,253,254)" d="M 351.298 2005.26 C 357.607 2007.84 352.591 2012.15 356.581 2016.77 L 358.548 2016.62 C 360.371 2013.89 360.576 2010.09 361.082 2006.72 L 363.073 2005.95 L 364.633 2007.41 C 364.752 2011.03 365.333 2015.41 363.814 2018.49 C 360.926 2020.45 355.406 2019.66 351.602 2019.54 C 351.34 2014.92 351.365 2009.92 351.298 2005.26 z"/>
<path transform="translate(0,0)" fill="rgb(254,253,254)" d="M 406.256 2006.35 L 419.5 2006.55 C 419.656 2010.58 420.337 2016.77 417.604 2019.76 C 415.843 2017.42 416.039 2015.51 415.802 2012.55 L 414.529 2009.38 L 412.801 2008.67 C 409.329 2011.08 410.429 2016.01 407.106 2019.87 C 406.126 2014.95 406.295 2011.33 406.256 2006.35 z"/>
<path transform="translate(0,0)" fill="rgb(254,253,254)" d="M 382.417 2005.25 L 385.159 2006.65 C 386.625 2011.13 385.897 2015.93 385.625 2020.75 L 382.886 2019.32 C 381.595 2014.86 382.209 2009.98 382.417 2005.25 z"/>
</svg>