<svg width="382" height="122" viewBox="0 0 382 122" fill="none" xmlns="http://www.w3.org/2000/svg">
<g clip-path="url(#clip0_6775_175736)">
<path d="M473.212 213.675L463.912 233.108L406.804 195.331L398.496 184.022L371.255 146.94L360.182 164.494L352.477 182.845C349.965 184.481 347.85 186.654 346.282 189.207C344.713 191.76 343.732 194.629 343.409 197.607L343.057 200.856L347.926 244.584L329.42 250.261L318.792 191.518L322.266 178.789L325.843 160.92L343.852 104.457H392.043L419.684 163.238L421.704 175.215L429.542 184.201L473.212 213.675Z" fill="#0D1E22"/>
<path d="M373.061 12.0781L381.173 18.2498L390.957 21.2535C390.957 21.2535 395.001 78.0943 398.646 81.7353C402.29 85.3764 399.003 85.4743 399.736 90.2042C400.468 94.9342 402.248 104.63 402.248 104.63C377.648 117.64 356.44 117.989 339.405 102.765C339.187 101.823 339.298 100.836 339.719 99.9653C340.14 99.095 340.846 98.3947 341.72 97.9803C344.891 96.2996 338.797 88.4548 341.388 87.1432C343.979 85.8315 340.335 74.4532 340.335 74.4532L342.726 50.7133L340.837 46.9184L345.446 23.6981L353.444 20.7798L356.639 13.0892L373.061 12.0781Z" fill="#FF708F"/>
<path d="M378.143 113.103C378.107 112.077 378.296 111.055 378.698 110.109C379.1 109.164 379.704 108.318 380.468 107.631C381.233 106.944 382.139 106.433 383.122 106.134C384.106 105.834 385.143 105.754 386.161 105.899L397.594 83.6968L403.963 95.0036L392.13 114.353C391.773 116.046 390.808 117.549 389.417 118.577C388.025 119.606 386.305 120.089 384.581 119.935C382.857 119.781 381.249 119 380.063 117.741C378.876 116.482 378.193 114.832 378.143 113.103Z" fill="#FFB6B6"/>
<path d="M301.538 -21.5459L306.421 23.3791L306.594 23.4639C306.736 23.5339 312.923 26.5654 320.516 30.1756C321.797 30.7847 321.614 33.4229 322.952 34.0534C323.875 34.4877 326.31 32.9118 327.242 33.3471C335.542 37.225 343.935 40.9958 347.28 42.0176C351.795 43.4469 356.664 43.2903 361.078 41.5737L361.185 41.525L361.241 41.4218C362.368 39.311 362.743 36.8792 362.301 34.5274C361.86 32.1756 360.63 30.0443 358.814 28.4847C350.005 21.0017 339.575 15.6667 328.348 12.9008L321.96 11.3349L313.779 -20.6677L301.538 -21.5459Z" fill="#FF708F"/>
<path d="M364.412 9.53262C373.274 9.53262 380.458 2.35493 380.458 -6.49919C380.458 -15.3533 373.274 -22.531 364.412 -22.531C355.55 -22.531 348.365 -15.3533 348.365 -6.49919C348.365 2.35493 355.55 9.53262 364.412 9.53262Z" fill="#FFB6B6"/>
<path d="M348.48 -17.2418C349.8 -21.0774 356.369 -23.7378 367.018 -24.1077C377.668 -24.4776 380.369 -11.939 380.369 -11.939C387.479 -6.17707 372.778 9.249 372.066 8.69343L372.386 5.79516C372.916 0.994556 375.166 -2.75116 372.304 -7.75422L369.556 -7.72271C366.008 -7.04093 362.459 -6.35916 358.91 -5.67739L363.112 -9.37317L362.993 -9.5563C361.206 -8.62632 359.261 -8.0364 357.258 -7.81659C355 -7.68398 352.531 -8.58184 351.45 -10.5667C351.161 -11.1123 350.984 -11.7102 350.931 -12.325C347.886 -11.1095 346.493 -7.359 346.493 -7.359C346.493 -7.359 347.16 -13.4062 348.48 -17.2418Z" fill="#0D1E22"/>
<path d="M38.7728 48.1991C36.1479 52.8571 30.9057 55.4567 25.7094 56.7298C19.8727 58.2572 13.7264 58.1385 7.95319 56.3868C7.22069 56.1505 6.48814 55.876 5.77851 55.5711C6.11967 54.6658 6.39011 53.7355 6.58735 52.7885C6.85296 51.507 6.98592 50.2016 6.98415 48.8929C6.40596 50.0201 5.65696 51.0512 4.76364 51.9499C4.07454 52.6732 3.29187 53.3013 2.43635 53.8176C-0.217227 52.2086 -2.51493 50.0765 -4.31663 47.5512C-4.2022 47.2691 -4.0877 46.987 -3.98087 46.705C-3.42679 45.2317 -2.988 43.7177 -2.66846 42.1766C-2.2349 40.0928 -2.01755 37.9699 -2.01984 35.8415C-2.96068 37.6754 -4.18086 39.3522 -5.63675 40.812C-6.07323 41.2786 -6.53693 41.719 -7.02544 42.1309C-7.78198 39.8354 -8.07443 37.4126 -7.88581 35.0033C-7.69719 32.594 -7.03125 30.2461 -5.9267 28.0961C-2.905 22.5157 2.95522 19.1995 8.1745 15.5936C13.4014 11.9877 18.6283 7.10866 19.0708 0.77356C19.3684 -3.5032 17.3845 -7.78765 18.1781 -11.9958C18.5118 -13.7703 19.3266 -15.4193 20.5337 -16.7632C21.7408 -18.107 23.2938 -19.0942 25.0237 -19.617C26.7535 -20.1399 28.5938 -20.1785 30.3441 -19.7286C32.0944 -19.2787 33.6875 -18.3575 34.9499 -17.0654C31.9893 -12.8725 29.0439 -8.53472 27.8459 -3.54898C26.6251 1.52828 27.6247 7.4822 31.6307 10.8441C33.0042 12.0029 34.6905 12.8262 35.7512 14.2747C37.1628 16.1958 37.1704 18.7573 37.3993 21.1206C37.8571 25.7175 39.3604 30.1391 40.1692 34.6903C40.9857 39.234 41.0314 44.1663 38.7728 48.1991Z" fill="#0D1E22"/>
<path d="M20.2949 -2.73586C20.2939 -0.0174274 20.9608 2.65967 22.2372 5.06047C23.5135 7.46127 25.3602 9.51234 27.6152 11.0336C29.8702 12.5549 32.4645 13.4999 35.1703 13.7857C37.8762 14.0714 40.6109 13.6892 43.1344 12.6725C45.6579 11.6558 47.893 10.0358 49.6435 7.95464C51.394 5.87348 52.6064 3.39482 53.1743 0.736248C53.7421 -1.92232 53.6481 -4.67953 52.9004 -7.29331C52.1527 -9.9071 50.7742 -12.2975 48.886 -14.2548L48.8062 -14.3344C48.6732 -14.474 48.5402 -14.6135 48.4006 -14.7464L48.398 -14.7469L48.3958 -14.7483L48.3944 -14.7505L48.3939 -14.753C48.2211 -14.9124 48.0482 -15.0719 47.8686 -15.2247C44.9431 -17.7888 40.8311 -20.572 36.6356 -20.572C27.4532 -20.572 20.2949 -11.9098 20.2949 -2.73586Z" fill="#0D1E22"/>
<path d="M115.042 -11.2644C115.122 -10.3786 115.006 -9.48621 114.703 -8.64998C114.4 -7.81376 113.917 -7.05407 113.289 -6.42443C112.66 -5.7948 111.901 -5.31053 111.065 -5.00574C110.228 -4.70095 109.335 -4.58306 108.449 -4.66035L67.2866 32.4704L60.2031 21.2932L102.891 -11.6905C103.12 -13.1702 103.884 -14.5148 105.039 -15.4693C106.194 -16.4238 107.659 -16.922 109.156 -16.8695C110.654 -16.817 112.08 -16.2174 113.165 -15.1844C114.25 -14.1513 114.918 -12.7565 115.042 -11.2644Z" fill="#A0616A"/>
<path d="M49.6946 43.678C49.6946 43.678 51.2261 46.504 56.4576 42.1403C60.6458 38.6469 80.7111 23.4808 85.0339 17.266C86.021 17.6567 87.1101 17.7083 88.1297 17.4125C89.1493 17.1167 90.0414 16.4904 90.6655 15.6323L78.8215 5.26904C75.2777 5.67661 75.3537 8.05504 75.7227 9.40538L66.7886 13.4495L43.7178 28.1797L48.5512 41.6548L49.6946 43.678Z" fill="#00A79B"/>
<path d="M27.3443 69.7142L26.4816 73.8188L25.749 88.9595L58.0013 90.7306L56.9998 67.4435L53.8736 62.3118L27.3443 69.7142Z" fill="#A0616A"/>
<path d="M41.0131 15.0324C48.7113 15.0324 54.9519 8.79755 54.9519 1.10643C54.9519 -6.58469 48.7113 -12.8196 41.0131 -12.8196C33.3149 -12.8196 27.0742 -6.58469 27.0742 1.10643C27.0742 8.79755 33.3149 15.0324 41.0131 15.0324Z" fill="#A0616A"/>
<path d="M16.2664 52.472L16.1807 40.8961C16.1787 36.731 17.5895 32.6881 20.183 29.427C22.7764 26.1659 26.3994 23.879 30.4609 22.9394L30.5135 22.9271L33.2698 19.2168L44.4679 20.336L46.5203 24.5269L54.6346 29.354L57.7588 39.3878C59.1138 40.2901 60.2687 41.4612 61.1516 42.8283C62.0345 44.1954 62.6266 45.7293 62.891 47.3347C63.9517 54.1035 59.208 60.8762 58.6438 61.6527L57.1899 69.8332L25.5628 75.4084L25.3059 75.4408L16.2664 52.472Z" fill="#00A79B"/>
<path d="M58.0702 -1.37627C56.4444 -0.347415 54.7574 0.581823 53.0188 1.40629C51.2541 2.25321 49.4084 2.91986 47.5096 3.39607C46.9663 2.20516 46.3015 1.07342 45.5257 0.0188694C45.7253 1.26843 45.7304 2.54132 45.5409 3.79246C42.3936 4.29976 39.1701 4.03554 36.1477 3.02253L33.5229 -1.37622L33.3245 3.53329C31.1498 3.92973 28.9827 4.30327 26.808 4.69208C26.6783 4.70729 26.5486 4.7378 26.4265 4.76068C25.0758 -1.32284 26.9911 -8.0239 31.249 -12.0795C33.363 -14.0721 36.0001 -15.4238 38.8531 -15.9772C41.7062 -16.5305 44.6579 -16.2628 47.3646 -15.2052C47.708 -15.068 48.059 -14.9155 48.3947 -14.7554L48.3952 -14.7524L48.3969 -14.7499L48.3994 -14.7483L48.4023 -14.7478C48.6007 -14.6487 48.7686 -14.4124 48.9899 -14.4352C58.5127 -15.495 58.818 -8.11544 58.0702 -1.37627Z" fill="#0D1E22"/>
<path d="M12.2481 189.602L12.2478 189.511L15.5535 183.82L12.178 176.411L12.0767 157.378L12.6239 154.521C13.3598 150.678 13.1457 146.713 12 142.972L11.9384 131.386C11.8198 128.484 16.3201 125.931 15.2706 123.511C5.35098 100.641 25.4002 83.194 25.5356 83.054L25.9453 82.6284L28.1683 84.3106L30.2841 84.3132L58.8363 89.511L59.0425 89.8951C60.1655 91.9996 62.3328 99.2533 62.4614 102.536C63.8844 104.182 80.0934 122.921 81.5343 124.223C91.2712 133.025 96.846 147.593 99.3024 155.494C99.9124 157.447 100.035 159.519 99.6606 161.529C99.2858 163.54 98.4245 165.429 97.1518 167.032L60.2906 207.37L50.3709 198.221L70.3162 161.91L68.8779 158.226C66.2973 157.75 63.9619 156.395 62.2701 154.39L58.2313 149.601C57.1131 148.279 56.4025 146.661 56.1856 144.943L53.7363 144.649L44.963 135.446L38.8762 190.517L37.2214 194.867L8.40313 228.715L-3.80566 221.092L12.2481 189.602Z" fill="#0D1E22"/>
<path d="M7.84742 -46.8661C7.29376 -46.1698 6.89965 -45.3606 6.69287 -44.4956C6.48608 -43.6306 6.47165 -42.7308 6.65058 -41.8596C6.82951 -40.9884 7.19744 -40.167 7.72848 -39.4533C8.25952 -38.7396 8.94075 -38.1508 9.72416 -37.7286L0.560547 -10.6248L8.04314 18.098L20.1089 12.6483L12.6634 -9.01654L18.2338 -40.5514C18.8566 -41.9133 18.9577 -43.4561 18.518 -44.8875C18.0783 -46.3189 17.1283 -47.5394 15.848 -48.3178C14.5678 -49.0962 13.0462 -49.3783 11.5716 -49.1108C10.0971 -48.8432 8.77197 -48.0446 7.84742 -46.8661Z" fill="#A0616A"/>
<path d="M18.8911 41.7638C18.8911 41.7638 16.0572 43.2842 14.0863 36.7664C12.5085 31.5483 1.77065 3.21702 1.57716 -4.34853C0.537566 -4.56397 -0.400725 -5.11883 -1.08992 -5.92571C-1.77911 -6.73259 -2.18003 -7.74563 -2.22949 -8.80521L13.366 -10.9614C16.1026 -8.67541 14.731 -6.72994 13.68 -5.80435L18.9917 3.18466L30.094 27.452L20.9591 40.7012L18.8911 41.7638Z" fill="#00A79B"/>
<path d="M26.8047 4.6908C28.4062 -0.134528 31.278 -4.44034 35.1188 -7.77497C38.9595 -11.1096 43.6277 -13.3501 48.6336 -14.2616C48.6536 -14.2681 48.7201 -14.2947 48.8065 -14.3346C48.8597 -14.3678 48.9262 -14.401 48.9927 -14.4342C48.7932 -14.5471 48.6004 -14.6467 48.4009 -14.7465L48.3983 -14.747L48.3962 -14.7484L48.3947 -14.7506L48.3943 -14.7531C48.2214 -14.9126 48.0485 -15.072 47.869 -15.2248L47.3637 -15.2048C47.3637 -15.2048 29.604 -18.0148 26.8047 4.6908Z" fill="#FD6584"/>
<path d="M130.276 122.505C132.214 119.594 131.067 115.428 127.713 113.199C124.36 110.97 120.07 111.522 118.132 114.433C116.193 117.344 117.341 121.51 120.694 123.739C124.048 125.968 128.337 125.416 130.276 122.505Z" fill="#E6E6E6"/>
</g>
<defs>
<clipPath id="clip0_6775_175736">
<rect width="523" height="450" fill="white"/>
</clipPath>
</defs>
</svg>
