<svg width="166" height="172" viewBox="0 0 166 172" fill="none" xmlns="http://www.w3.org/2000/svg">
<g clip-path="url(#clip0_1991_35910)">
<path d="M142.69 154.491V155.088C142.654 162.021 141.479 167.43 139.172 171.239C139.139 171.295 139.104 171.349 139.071 171.405L138.813 171.248L138.566 171.095C141.125 166.981 142.031 161.167 142.063 155.12C142.066 154.925 142.069 154.727 142.066 154.529C142.057 151.969 141.9 149.38 141.648 146.864C141.63 146.669 141.609 146.471 141.588 146.273C141.238 142.955 140.733 139.783 140.217 137.028C140.181 136.833 140.143 136.639 140.104 136.447C139.211 131.787 138.299 128.412 138.091 127.665C138.068 127.573 138.053 127.523 138.05 127.511L138.332 127.432L138.335 127.429L138.62 127.349C138.623 127.361 138.673 127.529 138.756 127.842C139.074 129.011 139.899 132.186 140.71 136.373C140.745 136.562 140.784 136.757 140.82 136.952C141.241 139.187 141.654 141.685 141.98 144.307C142.063 144.965 142.138 145.615 142.203 146.256C142.227 146.454 142.247 146.651 142.265 146.846C142.538 149.566 142.68 152.114 142.69 154.491Z" fill="white"/>
<path d="M140.71 136.373C140.511 136.399 140.309 136.426 140.104 136.447C139.548 136.504 138.989 136.532 138.43 136.532C136.047 136.535 133.693 136.007 131.542 134.985C131.418 135.141 131.293 135.298 131.165 135.457C133.428 136.556 135.912 137.125 138.43 137.123C139.027 137.123 139.623 137.091 140.217 137.028C140.419 137.008 140.621 136.981 140.82 136.951C142.461 136.717 144.058 136.236 145.555 135.525C145.427 135.363 145.302 135.203 145.181 135.047C143.764 135.705 142.257 136.152 140.71 136.373Z" fill="white"/>
<path d="M142.203 146.256C141.998 146.268 141.793 146.273 141.588 146.273C141.526 146.276 141.461 146.276 141.398 146.276C138.816 146.276 136.272 145.655 133.983 144.466C131.694 143.277 129.728 141.555 128.253 139.447C128.134 139.621 128.016 139.795 127.9 139.972C129.438 142.105 131.464 143.843 133.811 145.042C136.159 146.241 138.76 146.867 141.398 146.867C141.482 146.867 141.565 146.867 141.648 146.864C141.856 146.861 142.06 146.855 142.265 146.846C145.435 146.685 148.491 145.619 151.067 143.775C150.972 143.601 150.877 143.427 150.779 143.253C148.275 145.062 145.295 146.106 142.203 146.256Z" fill="white"/>
<path d="M142.69 154.491C142.482 154.509 142.274 154.521 142.066 154.529C141.844 154.538 141.621 154.544 141.398 154.544C137.928 154.54 134.553 153.418 131.778 151.347C129.002 149.275 126.976 146.365 126.003 143.052C125.869 143.291 125.736 143.527 125.608 143.767C126.705 147.072 128.821 149.949 131.655 151.99C134.49 154.031 137.899 155.131 141.398 155.135C141.621 155.135 141.844 155.132 142.063 155.12C142.274 155.114 142.482 155.102 142.69 155.088C146.887 154.761 150.803 152.86 153.644 149.77C153.582 149.551 153.511 149.335 153.439 149.117C150.695 152.231 146.839 154.158 142.69 154.491Z" fill="white"/>
<path d="M124.905 37.1901L42.202 26.7024C41.9792 26.674 41.7548 26.6595 41.5302 26.659C41.3088 26.6587 41.0876 26.6725 40.868 26.7006C40.6488 26.7287 40.4317 26.7709 40.218 26.8272C40.0018 26.8846 39.7896 26.9558 39.5826 27.0404C39.3799 27.1232 39.1824 27.2182 38.9912 27.3248C38.7974 27.4322 38.6102 27.5509 38.4305 27.6802C38.2467 27.8129 38.0706 27.9559 37.9031 28.1085C37.7301 28.2655 37.5657 28.4316 37.4106 28.6061C37.2515 28.7858 37.1017 28.9735 36.9618 29.1685C36.8205 29.3658 36.688 29.5712 36.5641 29.7844C36.4402 29.9984 36.3252 30.2209 36.2192 30.452C36.1132 30.683 36.0165 30.9218 35.9291 31.1685C35.8385 31.4235 35.7592 31.6842 35.6911 31.9505C35.6229 32.2168 35.566 32.4878 35.5202 32.7634C35.4755 33.0387 35.4412 33.3186 35.4173 33.603C35.3935 33.8873 35.3816 34.1751 35.3816 34.4663C35.3825 34.7573 35.3945 35.0473 35.4173 35.3364C35.4402 35.6255 35.4745 35.9123 35.5202 36.1966C35.5665 36.4822 35.6236 36.7648 35.6918 37.0447C35.7599 37.3245 35.8392 37.6012 35.9298 37.8746C36.0172 38.1389 36.1139 38.397 36.2199 38.6492C36.3259 38.9015 36.4409 39.147 36.5648 39.3856C36.6887 39.6243 36.8212 39.856 36.9625 40.0809C37.1036 40.3067 37.2532 40.524 37.4113 40.7328C37.5695 40.9415 37.7337 41.1407 37.9038 41.3303C38.0739 41.5187 38.2497 41.6964 38.4312 41.8634C38.6128 42.0305 38.7997 42.1865 38.9919 42.3315C39.1821 42.4751 39.3795 42.6089 39.5833 42.7325C39.7886 42.8571 40.0008 42.9702 40.2187 43.0712C40.4302 43.1692 40.6472 43.2548 40.8687 43.3275C41.0857 43.3987 41.3068 43.4568 41.5309 43.5013C41.7528 43.5453 41.9771 43.5755 42.2027 43.5919L124.906 49.6092C125.147 49.6266 125.389 49.6026 125.621 49.5381C125.739 49.5054 125.854 49.4631 125.966 49.4116C126.082 49.3578 126.194 49.2954 126.301 49.2249C126.409 49.1535 126.512 49.0752 126.61 48.9904C126.713 48.9014 126.81 48.8064 126.902 48.706C126.998 48.5999 127.089 48.4889 127.174 48.3733C127.262 48.2544 127.347 48.1276 127.428 47.993C127.509 47.8584 127.585 47.718 127.657 47.5718C127.73 47.4256 127.797 47.2737 127.86 47.1161C127.923 46.9588 127.982 46.796 128.035 46.6277C128.089 46.4595 128.138 46.2863 128.182 46.1081C128.228 45.9237 128.268 45.7361 128.302 45.5451C128.335 45.3541 128.364 45.1602 128.388 44.9636C128.411 44.7669 128.428 44.5676 128.44 44.3657C128.451 44.1638 128.457 43.9597 128.457 43.7533C128.456 43.5471 128.45 43.3419 128.44 43.1377C128.429 42.9334 128.412 42.7307 128.388 42.5295C128.365 42.3283 128.336 42.1288 128.302 41.9309C128.267 41.7331 128.227 41.5373 128.182 41.3437C128.138 41.1565 128.089 40.9736 128.035 40.7949C127.982 40.6186 127.924 40.445 127.86 40.2739C127.796 40.1028 127.729 39.9369 127.657 39.7762C127.585 39.6158 127.509 39.4601 127.428 39.3092C127.346 39.1583 127.262 39.0147 127.174 38.8784C127.087 38.7421 126.996 38.613 126.902 38.491C126.808 38.3689 126.71 38.2547 126.61 38.1483C126.512 38.0441 126.409 37.9451 126.301 37.8519C126.194 37.7605 126.083 37.6759 125.966 37.5984C125.856 37.5253 125.74 37.46 125.621 37.4029C125.507 37.3484 125.388 37.3028 125.267 37.2665C125.149 37.2312 125.028 37.2056 124.905 37.1901Z" fill="#00A79B"/>
<path d="M124.905 60.8436L42.202 58.8734C41.7534 58.8624 41.3052 58.9079 40.868 59.0088C40.6475 59.0599 40.4304 59.1246 40.218 59.2025C40.0008 59.2822 39.7886 59.3748 39.5826 59.4798C39.3792 59.5835 39.1818 59.6983 38.9912 59.8239C38.797 59.9518 38.6098 60.09 38.4305 60.2379C38.2465 60.3898 38.0705 60.5509 37.9031 60.7206C37.7327 60.8931 37.5686 61.0765 37.4106 61.2709C37.2527 61.4656 37.1031 61.6686 36.9618 61.8797C36.8205 62.0909 36.6879 62.3098 36.5641 62.5366C36.4402 62.7633 36.3252 62.9977 36.2192 63.2396C36.1132 63.4816 36.0165 63.7304 35.929 63.9861C35.8385 64.2507 35.7592 64.5197 35.6911 64.7929C35.6229 65.0661 35.566 65.3429 35.5202 65.6232C35.4755 65.9036 35.4411 66.1871 35.4173 66.4738C35.3935 66.7605 35.3816 67.0495 35.3816 67.3407C35.3825 67.632 35.3944 67.9208 35.4173 68.2073C35.4402 68.4938 35.4745 68.7771 35.5202 69.0572C35.5665 69.3358 35.6236 69.6115 35.6918 69.8843C35.7599 70.157 35.8392 70.4255 35.9298 70.6897C36.0172 70.9461 36.1139 71.1949 36.2199 71.4361C36.3259 71.6774 36.4409 71.911 36.5648 72.1371C36.6887 72.3631 36.8212 72.5812 36.9625 72.7914C37.1035 73.0009 37.2532 73.2023 37.4113 73.3957C37.5695 73.589 37.7337 73.7714 37.9038 73.9427C38.0712 74.1114 38.2472 74.2715 38.4312 74.4222C38.6106 74.569 38.7977 74.706 38.9919 74.8327C39.1825 74.957 39.38 75.0706 39.5833 75.1729C39.7894 75.2767 40.0016 75.3679 40.2187 75.4462C40.4312 75.5228 40.6483 75.5861 40.8687 75.6357C41.087 75.6851 41.3081 75.7207 41.5309 75.7423C41.7542 75.7636 41.9786 75.7708 42.2027 75.764L124.905 73.2613C125.027 73.2576 125.148 73.2437 125.267 73.2197C125.388 73.1954 125.506 73.1613 125.621 73.1177C125.74 73.0725 125.855 73.0183 125.966 72.9556C126.082 72.8897 126.194 72.8158 126.301 72.7346C126.409 72.6518 126.512 72.5628 126.61 72.468C126.713 72.3685 126.81 72.2636 126.902 72.1538C126.996 72.0419 127.086 71.9217 127.174 71.793C127.262 71.6643 127.347 71.5289 127.428 71.3867C127.509 71.2436 127.585 71.0953 127.657 70.9417C127.73 70.7882 127.797 70.6294 127.86 70.4654C127.923 70.2988 127.982 70.1293 128.035 69.9568C128.089 69.7843 128.138 69.6066 128.182 69.4236C128.228 69.2364 128.268 69.0456 128.302 68.851C128.335 68.6565 128.364 68.4597 128.388 68.2606C128.411 68.0609 128.428 67.8595 128.44 67.6564C128.451 67.4533 128.457 67.2486 128.457 67.0422C128.456 66.8377 128.45 66.6334 128.44 66.4294C128.429 66.2254 128.412 66.0239 128.388 65.8251C128.365 65.6256 128.336 65.4291 128.302 65.2355C128.267 65.0419 128.227 64.8503 128.182 64.6607C128.137 64.4778 128.088 64.2996 128.035 64.1261C127.981 63.9527 127.923 63.7842 127.86 63.6207C127.797 63.4572 127.73 63.2988 127.658 63.1455C127.586 62.9922 127.509 62.8444 127.428 62.7022C127.347 62.5598 127.262 62.4248 127.175 62.297C127.087 62.1693 126.996 62.0495 126.902 61.9377C126.81 61.8284 126.713 61.7241 126.61 61.6252C126.513 61.5311 126.409 61.4428 126.301 61.3608C126.195 61.2802 126.083 61.2071 125.966 61.1418C125.855 61.0801 125.74 61.0268 125.621 60.9826C125.506 60.9397 125.388 60.9063 125.267 60.8827C125.148 60.8595 125.027 60.8465 124.905 60.8436Z" fill="#F6F7F8"/>
<path d="M124.905 83.0186L42.202 89.0348C41.9764 89.0512 41.752 89.0815 41.5302 89.1254C41.3061 89.1699 41.085 89.228 40.868 89.2992C40.6465 89.3719 40.4294 89.4575 40.218 89.5555C40 89.6566 39.7879 89.7697 39.5826 89.8942C39.3788 90.0178 39.1814 90.1516 38.9912 90.2952C38.7987 90.4414 38.6118 90.5974 38.4305 90.7633C38.2492 90.9299 38.0734 91.1076 37.9031 91.2965C37.7327 91.4853 37.5686 91.6845 37.4106 91.8939C37.2527 92.1041 37.1031 92.3217 36.9618 92.5465C36.8205 92.7714 36.688 93.0032 36.5641 93.2418C36.4402 93.4806 36.3252 93.7261 36.2192 93.9783C36.1132 94.2304 36.0165 94.4886 35.9291 94.7528C35.8385 95.0258 35.7592 95.3024 35.6911 95.5827C35.6229 95.8631 35.566 96.1454 35.5202 96.4297C35.4755 96.7146 35.4412 97.0014 35.4173 97.2903C35.3935 97.5791 35.3816 97.8692 35.3816 98.1604C35.3825 98.4516 35.3945 98.7394 35.4173 99.0238C35.4402 99.3081 35.4745 99.5881 35.5202 99.8637C35.5665 100.14 35.6236 100.411 35.6918 100.677C35.7599 100.943 35.8392 101.203 35.9298 101.459C36.0172 101.706 36.1139 101.945 36.2199 102.175C36.3259 102.407 36.4409 102.629 36.5648 102.843C36.6887 103.057 36.8212 103.262 36.9625 103.459C37.1024 103.654 37.2522 103.842 37.4113 104.021C37.5664 104.196 37.7308 104.362 37.9038 104.519C38.0713 104.671 38.2474 104.814 38.4312 104.947C38.6109 105.077 38.7981 105.195 38.9919 105.303C39.1831 105.409 39.3806 105.504 39.5833 105.587C39.7903 105.672 40.0025 105.743 40.2187 105.8C40.4324 105.856 40.6495 105.899 40.8687 105.927C41.0883 105.955 41.3095 105.969 41.5309 105.968C41.7555 105.968 41.9799 105.953 42.2027 105.925L124.905 95.4398C125.028 95.4243 125.149 95.3987 125.267 95.3634C125.388 95.3271 125.507 95.2814 125.621 95.2269C125.74 95.1699 125.856 95.1046 125.966 95.0314C126.083 94.954 126.194 94.8694 126.301 94.778C126.409 94.6848 126.512 94.5858 126.61 94.4816C126.709 94.3749 126.806 94.2607 126.902 94.1389C126.996 94.0171 127.086 93.888 127.174 93.7515C127.262 93.615 127.347 93.4714 127.428 93.3207C127.509 93.1709 127.585 93.0153 127.657 92.8537C127.73 92.692 127.797 92.5262 127.86 92.356C127.923 92.1852 127.982 92.0104 128.035 91.8318C128.089 91.6531 128.138 91.4702 128.182 91.283C128.228 91.0891 128.268 90.8933 128.302 90.6954C128.335 90.4976 128.364 90.298 128.388 90.0968C128.411 89.8957 128.428 89.6929 128.44 89.4887C128.451 89.2844 128.457 89.0791 128.457 88.8727C128.456 88.6675 128.45 88.464 128.439 88.2621C128.429 88.0602 128.411 87.8609 128.388 87.6642C128.365 87.4668 128.336 87.2726 128.302 87.0816C128.267 86.8906 128.227 86.703 128.182 86.5186C128.138 86.3402 128.089 86.167 128.035 85.999C127.982 85.831 127.924 85.6682 127.86 85.5106C127.797 85.353 127.729 85.2011 127.658 85.0549C127.585 84.9099 127.508 84.7698 127.427 84.6348C127.346 84.4997 127.261 84.3729 127.174 84.2544C127.089 84.1389 126.998 84.0278 126.901 83.9217C126.809 83.8213 126.712 83.7264 126.609 83.6374C126.511 83.5526 126.408 83.4742 126.3 83.4028C126.193 83.3323 126.081 83.2699 125.965 83.2162C125.854 83.1647 125.738 83.1224 125.62 83.0896C125.388 83.0252 125.146 83.0012 124.905 83.0186Z" fill="#F6F7F8"/>
<path d="M79.8276 84.1209C80.3515 84.9872 81.177 85.6321 82.1474 85.933C83.1177 86.2339 84.1654 86.17 85.0915 85.7532C86.0176 85.3365 86.7576 84.5961 87.1711 83.6725C87.5845 82.7489 87.6426 81.7065 87.3343 80.7431L103.363 47.9892L95.6906 43.3629L81.8479 78.1542C81.795 78.1747 81.7429 78.1961 81.6916 78.2185C81.6403 78.2409 81.5892 78.2643 81.5383 78.2887C81.4874 78.3131 81.4368 78.3388 81.3867 78.3657C81.3365 78.3927 81.2867 78.421 81.2373 78.4507C80.2945 79.0167 79.6164 79.932 79.352 80.9952C79.0876 82.0584 79.2585 83.1826 79.8273 84.1205L79.8276 84.1209Z" fill="#9E616A"/>
<path d="M100.303 60.6192L88.9164 57.7163C88.9164 57.7163 89.2881 56.8803 89.8924 55.4954C90.4966 54.1105 91.3409 52.1794 92.2906 49.9868C93.2403 47.7943 94.2939 45.3444 95.3231 42.9228C96.3523 40.5012 97.3532 38.1086 98.1962 36.0347C99.0392 33.9609 99.9968 32.7188 100.959 32.0227C101.756 31.4205 102.759 31.1553 103.751 31.2845C104.522 31.3987 105.259 31.6778 105.912 32.1024C106.221 32.2936 106.511 32.5127 106.779 32.7572L109.419 37.5327L100.303 60.6192Z" fill="#D0D5DD"/>
<path d="M9.17378 58.0253C8.89802 58.0456 8.62362 58.0812 8.35187 58.132C8.07837 58.1829 7.80792 58.2489 7.54176 58.3296C7.27155 58.4117 7.006 58.5083 6.74629 58.6189C6.48049 58.7321 6.22082 58.8591 5.96834 58.9992C5.72129 59.1374 5.47984 59.2876 5.24398 59.4499C5.00813 59.6123 4.77906 59.7867 4.55679 59.9731C4.33476 60.1592 4.11927 60.3575 3.91034 60.5682C3.70141 60.7788 3.50011 61.001 3.30643 61.2346C3.11274 61.4683 2.92917 61.7103 2.75574 61.9608C2.5823 62.2112 2.41958 62.4693 2.26759 62.7349C2.11703 63.001 1.97623 63.2744 1.8452 63.5549C1.71417 63.8355 1.59505 64.1226 1.48785 64.4162C1.37612 64.7206 1.27832 65.0283 1.19446 65.3392C1.1106 65.6501 1.04068 65.9636 0.984694 66.2797C0.92847 66.5958 0.886306 66.9141 0.858195 67.2344C0.830083 67.5548 0.816032 67.8765 0.81604 68.1995C0.81604 68.5224 0.830091 68.8413 0.858195 69.156C0.886298 69.4706 0.928462 69.7805 0.984694 70.0854C1.04068 70.3904 1.1106 70.6899 1.19446 70.984C1.27832 71.2781 1.37576 71.5661 1.48678 71.8481C1.59494 72.1203 1.71405 72.3837 1.84413 72.6382C1.9727 72.8901 2.11391 73.1355 2.26723 73.3733C2.41815 73.6066 2.58109 73.832 2.75538 74.0486C2.92801 74.2639 3.11195 74.47 3.30642 74.666C3.49767 74.8587 3.69928 75.041 3.91034 75.212C4.11702 75.3794 4.33296 75.5352 4.55714 75.6787C4.99957 75.9619 5.47318 76.1937 5.96869 76.3697C6.47665 76.5502 7.00453 76.6695 7.54104 76.7251C7.81014 76.7527 8.08065 76.7646 8.35116 76.7606C8.62601 76.7568 8.90042 76.7375 9.17307 76.7027C9.44817 76.6678 9.72113 76.6179 9.99069 76.5531C10.2611 76.488 10.5277 76.4084 10.7894 76.3146C11.054 76.2196 11.3135 76.1108 11.5666 75.9886C11.8245 75.8642 12.076 75.7268 12.3199 75.577C12.5574 75.4296 12.7888 75.2716 13.0139 75.1029C13.239 74.9341 13.4571 74.7543 13.6682 74.5633C13.8793 74.3723 14.0831 74.1709 14.2796 73.9591C14.4762 73.7472 14.6651 73.5249 14.8464 73.2923C15.0289 73.0598 15.2006 72.8203 15.3617 72.5739C15.5227 72.3275 15.6735 72.0745 15.8141 71.815C15.9547 71.5556 16.0847 71.2901 16.2043 71.0185C16.3239 70.7469 16.4329 70.4697 16.5313 70.1868C16.6333 69.8939 16.7225 69.5985 16.799 69.3006C16.8755 69.0028 16.9393 68.7028 16.9905 68.4007C17.0415 68.0983 17.0799 67.7944 17.1056 67.489C17.1313 67.1835 17.1442 66.8768 17.1442 66.5687C17.1439 66.2607 17.1311 65.9564 17.1056 65.6559C17.0801 65.3555 17.0417 65.0593 16.9905 64.7673C16.9395 64.4759 16.8757 64.1887 16.799 63.9058C16.7223 63.6228 16.633 63.3452 16.5313 63.073C16.4325 62.8095 16.3235 62.5539 16.2043 62.3063C16.0836 62.0593 15.9529 61.8198 15.8123 61.5876C15.5341 61.1286 15.2105 60.6984 14.8464 60.3033C14.6677 60.109 14.479 59.9241 14.2811 59.7492C14.0861 59.5776 13.882 59.4166 13.6696 59.2669C13.4593 59.1186 13.2408 58.982 13.0153 58.8578C12.79 58.7336 12.5578 58.622 12.3199 58.5236C11.8288 58.3202 11.3151 58.1752 10.7897 58.0918C10.5253 58.0499 10.2586 58.0234 9.99106 58.0125C9.71848 58.0015 9.4455 58.0061 9.17344 58.026" fill="#F6F7F8"/>
<path d="M9.17378 91.4368C8.89802 91.4571 8.62362 91.4927 8.35187 91.5435C8.07837 91.5944 7.80792 91.6604 7.54176 91.7411C7.27155 91.8232 7.006 91.9198 6.74629 92.0304C6.48049 92.1436 6.22082 92.2706 5.96834 92.4107C5.72129 92.5489 5.47984 92.6991 5.24398 92.8614C5.00813 93.0238 4.77906 93.1982 4.55679 93.3847C4.33476 93.5707 4.11927 93.769 3.91034 93.9797C3.70141 94.1903 3.50011 94.4125 3.30643 94.6461C3.11274 94.8797 2.92917 95.1218 2.75574 95.3723C2.5823 95.6227 2.41958 95.8808 2.26759 96.1464C2.11703 96.4125 1.97623 96.6859 1.8452 96.9664C1.71417 97.247 1.59505 97.534 1.48785 97.8277C1.37612 98.1321 1.27832 98.4398 1.19446 98.7507C1.1106 99.0616 1.04068 99.3751 0.984694 99.6912C0.92847 100.007 0.886306 100.326 0.858195 100.646C0.830083 100.966 0.816032 101.288 0.81604 101.611C0.81604 101.934 0.830091 102.253 0.858195 102.567C0.886298 102.882 0.928462 103.192 0.984694 103.497C1.04068 103.802 1.1106 104.101 1.19446 104.395C1.27832 104.69 1.37576 104.978 1.48678 105.26C1.59494 105.532 1.71405 105.795 1.84413 106.05C1.9727 106.302 2.11391 106.547 2.26723 106.785C2.41815 107.018 2.58109 107.244 2.75538 107.46C2.92801 107.675 3.11195 107.882 3.30642 108.078C3.49767 108.27 3.69928 108.452 3.91034 108.623C4.11703 108.791 4.33296 108.947 4.55714 109.09C4.99957 109.373 5.47318 109.605 5.96869 109.781C6.47665 109.962 7.00453 110.081 7.54104 110.137C7.81014 110.164 8.08065 110.176 8.35116 110.172C8.62601 110.168 8.90042 110.149 9.17307 110.114C9.44817 110.079 9.72113 110.029 9.99069 109.965C10.2611 109.9 10.5277 109.82 10.7894 109.726C11.054 109.631 11.3135 109.522 11.5666 109.4C11.8245 109.276 12.076 109.138 12.3199 108.989C12.5574 108.841 12.7888 108.683 13.0139 108.514C13.239 108.346 13.4571 108.166 13.6682 107.975C13.8793 107.784 14.0831 107.582 14.2796 107.371C14.4762 107.159 14.6651 106.936 14.8464 106.704C15.0289 106.471 15.2006 106.232 15.3617 105.985C15.5227 105.739 15.6735 105.486 15.8141 105.227C15.9547 104.967 16.0847 104.702 16.2043 104.43C16.3239 104.158 16.4329 103.881 16.5313 103.598C16.6333 103.305 16.7225 103.01 16.799 102.712C16.8755 102.414 16.9393 102.114 16.9905 101.812C17.0415 101.51 17.0799 101.206 17.1056 100.9C17.1313 100.595 17.1442 100.288 17.1442 99.9802C17.1439 99.6722 17.1311 99.3679 17.1056 99.0674C17.0801 98.767 17.0417 98.4708 16.9905 98.1788C16.9395 97.8874 16.8757 97.6002 16.799 97.3172C16.7223 97.0343 16.633 96.7567 16.5313 96.4844C16.4325 96.2209 16.3235 95.9654 16.2043 95.7178C16.0836 95.4708 15.9529 95.2313 15.8123 94.9991C15.5341 94.5401 15.2105 94.1099 14.8464 93.7148C14.6677 93.5205 14.479 93.3356 14.2811 93.1607C14.0861 92.9891 13.882 92.8281 13.6696 92.6784C13.4593 92.5301 13.2408 92.3935 13.0153 92.2693C12.79 92.1451 12.5578 92.0335 12.3199 91.9351C11.8288 91.7317 11.3151 91.5867 10.7897 91.5033C10.5253 91.4614 10.2586 91.4349 9.99106 91.424C9.71848 91.413 9.4455 91.4175 9.17344 91.4375" fill="#F6F7F8"/>
<path d="M9.17339 20.9428C10.3738 20.9755 11.5512 21.2786 12.6168 21.8293C13.6758 22.3801 14.6145 23.1343 15.3785 24.0483C16.1771 25.0008 16.799 26.087 17.2153 27.2562C18.1067 29.7726 18.1067 32.5165 17.2153 35.0329C16.7986 36.2054 16.1767 37.2953 15.3785 38.2525C14.6144 39.1708 13.6758 39.9304 12.6165 40.4878C11.5522 41.0451 10.3751 41.3558 9.17304 41.3967C7.96361 41.4361 6.76132 41.1977 5.65955 40.7C4.54729 40.1933 3.55224 39.4635 2.73677 38.5564C1.87081 37.5958 1.19307 36.4826 0.738455 35.2742C-0.246152 32.6436 -0.246152 29.7485 0.738455 27.1179C1.19351 25.9059 1.87113 24.7886 2.73677 23.8229C3.55199 22.9108 4.54678 22.1747 5.65955 21.6604C6.76046 21.1557 7.96337 20.9097 9.17519 20.9414L9.17339 20.9428Z" fill="#00A79B"/>
<path d="M111.619 148.839L104.65 148.812L106.897 166.922L111.619 166.946V148.839Z" fill="#9E616A"/>
<path d="M112.823 171.503L97.6074 171.423V171.232C97.6071 170.843 97.6451 170.456 97.721 170.075C97.8706 169.323 98.1688 168.608 98.5983 167.972C99.0345 167.328 99.5936 166.774 100.244 166.344C100.886 165.919 101.605 165.626 102.362 165.48C102.745 165.407 103.135 165.371 103.526 165.374L112.823 165.419V171.503Z" fill="#0C282E"/>
<path d="M89.3068 148.753L82.3584 148.725L84.5983 166.812L89.3068 166.835V148.753Z" fill="#9E616A"/>
<path d="M90.5075 171.385L75.3322 171.306V171.115C75.332 170.727 75.3701 170.34 75.4458 169.96C75.595 169.209 75.8923 168.495 76.3206 167.86C76.7554 167.216 77.3132 166.663 77.9623 166.233C78.6022 165.809 79.3203 165.517 80.0749 165.372C80.4575 165.298 80.8464 165.263 81.236 165.265L90.5075 165.31V171.385Z" fill="#0C282E"/>
<path d="M89.0116 74.729L77.3273 118.101L81.6041 159.676L91.0739 159.935L89.012 122.395L100.826 103.662L103.388 160.191L111.978 159.587L116.756 110.983C118.379 107.188 119.57 103.224 120.305 99.1649C120.883 95.9789 121.164 92.7466 121.144 89.5093C121.135 87.3298 120.966 85.1539 120.641 82.9987C120.524 82.1955 120.367 81.3987 120.168 80.6115L116.685 77.0987L89.0116 74.729Z" fill="#1D4851"/>
<path d="M104.493 81.9829C102.528 81.9829 100.684 81.9202 99.0119 81.7963C97.3041 81.6798 95.6053 81.4573 93.9253 81.1303C92.4949 80.8646 91.102 80.4284 89.7766 79.8311C88.7096 79.3727 87.7818 78.6445 87.0856 77.7188L87.006 77.6036L90.1997 56.9301L93.6437 33.6853C93.8703 32.1471 94.6578 30.7454 95.8561 29.7472C97.0544 28.749 98.5799 28.224 100.142 28.2719L110.928 28.6007C111.737 28.6253 112.533 28.8113 113.268 29.1475C114.003 29.4837 114.663 29.9633 115.209 30.5579C115.754 31.1524 116.174 31.8499 116.443 32.6088C116.713 33.3678 116.826 34.1729 116.777 34.9763L115.361 58.0935L120.584 80.8962L120.214 80.9475C120.065 80.9671 119.492 81.0424 118.594 81.1429C117.421 81.2741 116.222 81.3923 115.033 81.4944C113.349 81.6387 111.702 81.7522 110.137 81.8318C108.152 81.9324 106.249 81.9811 104.493 81.9829Z" fill="#D0D5DD"/>
<path d="M98.5072 24.1642C98.5043 24.1642 98.5014 24.1642 98.4986 24.1642C98.2723 24.164 98.0482 24.1196 97.8392 24.0333C97.6302 23.947 97.4403 23.8207 97.2804 23.6614C97.1205 23.5022 96.9937 23.3131 96.9072 23.1051C96.8208 22.8971 96.7764 22.6742 96.7765 22.4492V12.8842C96.7748 11.1706 97.1196 9.47409 97.7903 7.89562C99.1036 4.8153 101.561 2.35792 104.651 1.0356C106.606 0.201844 108.737 -0.136807 110.856 0.0499658C112.974 0.236739 115.012 0.943103 116.789 2.10581C118.565 3.26852 120.024 4.85127 121.034 6.71234C122.045 8.5734 122.575 10.6547 122.579 12.7698V22.3493C122.579 22.5798 122.533 22.8081 122.442 23.0204C122.265 23.4345 121.934 23.7646 121.518 23.9417C121.305 24.0323 121.075 24.0793 120.843 24.0799L98.5057 24.1642H98.5072Z" fill="#0C282E"/>
<path d="M115.503 9.60387C116.403 11.2385 116.795 13.1016 116.631 14.958C116.467 16.8144 115.753 18.5808 114.58 20.034C113.408 21.4873 111.828 22.5622 110.041 23.1231C108.255 23.684 106.341 23.7056 104.542 23.1853C103.35 22.8448 102.239 22.2726 101.272 21.5017C100.304 20.7309 99.5003 19.7768 98.9063 18.6947C98.0087 17.0608 97.6175 15.1991 97.7821 13.3444C97.9468 11.4897 98.6598 9.72504 99.8313 8.27284C101.003 6.82064 102.58 5.74596 104.365 5.1843C106.15 4.62264 108.062 4.59915 109.86 5.11679C111.052 5.45604 112.165 6.02739 113.134 6.79771C114.102 7.56803 114.908 8.52198 115.503 9.60424V9.60387Z" fill="#9E616A"/>
<path d="M93.7265 13.6627C93.7253 12.3074 93.998 10.9657 94.5284 9.71727C95.5669 7.2815 97.5105 5.33845 99.9541 4.29323C101.208 3.75893 102.557 3.48091 103.921 3.47571L105.845 3.46611C105.867 3.46599 105.889 3.46593 105.91 3.46594C107.243 3.46676 108.563 3.72867 109.794 4.23672C111.025 4.74477 112.143 5.48902 113.085 6.42696C114.027 7.3649 114.773 8.47817 115.283 9.70321C115.792 10.9283 116.054 12.2411 116.053 13.5667V13.7583L111.981 13.7746L110.593 9.91666L110.315 13.7821L108.212 13.7913L107.512 11.8449L107.372 13.7938L93.7283 13.8546L93.7265 13.6627Z" fill="#0C282E"/>
<path d="M77.3347 33.7843C76.7082 33.9367 76.1223 34.2223 75.6173 34.6214C75.2227 34.932 74.8852 35.3083 74.62 35.7337C74.0969 36.5755 73.8664 37.565 73.964 38.5498C74.0133 39.0473 74.149 39.5326 74.365 39.9839C74.6313 40.5465 75.0146 41.0464 75.4895 41.4508C75.9644 41.8551 76.5201 42.1547 77.12 42.3297C77.7199 42.5047 78.3502 42.5511 78.9695 42.466C79.5887 42.3808 80.1828 42.1659 80.7124 41.8356C80.7514 41.8105 80.79 41.7851 80.8283 41.7593C80.8666 41.7334 80.9042 41.7071 80.9411 41.6803C80.9782 41.6533 81.0147 41.626 81.0506 41.5982C81.0864 41.5705 81.1221 41.5423 81.1574 41.5138L103.625 49.4674C104.316 49.712 105.069 49.7266 105.769 49.509C106.47 49.2914 107.08 48.8534 107.508 48.261L112.835 40.9254L106.395 36.612L103.016 40.4306L82.4539 36.3622C82.4314 36.3092 82.4082 36.2565 82.3842 36.2041C82.3601 36.1516 82.3351 36.0994 82.3089 36.0473C82.2823 35.9955 82.255 35.9439 82.2268 35.8926C82.1986 35.8413 82.1688 35.7903 82.1374 35.7398C81.6468 34.9514 80.918 34.3377 80.0553 33.9864C79.1926 33.6351 78.2403 33.5644 77.3347 33.7843Z" fill="#9E616A"/>
<path d="M103.378 38.0224C104.05 37.1881 104.99 36.1049 105.945 35.0305C106.899 33.9561 107.868 32.8913 108.599 32.0947C109.33 31.2981 109.822 30.7702 109.822 30.7702C110.496 29.7556 111.503 29.0046 112.671 28.6448C113.839 28.2849 115.097 28.3383 116.23 28.7959C117.363 29.2536 118.302 30.0872 118.887 31.1553C119.472 32.2233 119.667 33.4599 119.44 34.655C119.31 35.343 119.041 35.9977 118.65 36.5798C118.65 36.5798 117.917 37.5339 116.811 38.9579C115.704 40.3819 114.224 42.2776 112.731 44.1622C111.237 46.0467 109.73 47.9216 108.567 49.3055C107.405 50.6895 106.586 51.5835 106.471 51.5069L102.416 39.5171C102.301 39.4405 102.706 38.8567 103.378 38.0224Z" fill="#D0D5DD"/>
<path d="M105.785 23.8628C105.721 24.172 105.746 24.4928 105.856 24.7887C105.912 24.9401 105.988 25.0831 106.084 25.2134C106.165 25.3245 106.26 25.4255 106.365 25.5145C106.678 25.7771 107.074 25.9204 107.483 25.9186C107.509 25.9184 107.534 25.9177 107.56 25.9165C107.585 25.9153 107.611 25.9135 107.636 25.9112C107.662 25.909 107.687 25.9062 107.713 25.9026C107.738 25.8991 107.764 25.8951 107.79 25.8906L109.235 25.6293L111.225 21.3996V25.2739L117.796 24.0974V7.6564L106.781 7.70901L107.053 8.02357C107.957 9.07907 108.551 10.3621 108.769 11.7315C108.982 13.1186 108.955 14.5317 108.689 15.9098C108.43 17.3041 108.038 18.6705 107.516 19.9902C107.061 21.1593 106.538 22.3014 105.95 23.4106C105.874 23.5529 105.818 23.7051 105.785 23.8628Z" fill="#0C282E"/>
<path d="M134.437 80.5766C117.26 80.5766 103.263 94.4915 103.263 111.568C103.263 128.644 117.26 142.559 134.437 142.559C151.613 142.559 165.61 128.644 165.61 111.568C165.61 94.4915 151.613 80.5766 134.437 80.5766ZM149.338 104.44L131.662 122.012C131.226 122.445 130.633 122.693 130.01 122.693C129.387 122.693 128.794 122.445 128.358 122.012L119.536 113.241C118.632 112.342 118.632 110.855 119.536 109.956C120.44 109.057 121.936 109.057 122.84 109.956L130.01 117.084L146.033 101.155C146.937 100.256 148.434 100.256 149.338 101.155C150.242 102.053 150.242 103.51 149.338 104.44Z" fill="#2CBB66"/>
</g>
<defs>
<clipPath id="clip0_1991_35910">
<rect width="166" height="172" fill="white"/>
</clipPath>
</defs>
</svg>
