<svg width="218" height="172" viewBox="0 0 218 172" fill="none" xmlns="http://www.w3.org/2000/svg">
<path d="M110.834 142.338L90.8829 106.636C88.2019 101.832 84.4923 99.1982 80.4085 99.1982C76.3247 99.1982 72.6151 101.832 69.9341 106.636L49.983 142.338C47.4579 146.893 47.1773 151.263 49.2036 154.703C51.2299 158.143 55.2201 160.034 60.4573 160.034H100.36C105.597 160.034 109.587 158.143 111.613 154.703C113.64 151.263 113.359 146.862 110.834 142.338ZM78.0705 120.892C78.0705 119.621 79.1304 118.568 80.4085 118.568C81.6866 118.568 82.7465 119.621 82.7465 120.892V136.387C82.7465 137.658 81.6866 138.712 80.4085 138.712C79.1304 138.712 78.0705 137.658 78.0705 136.387V120.892ZM82.6218 147.885C82.466 148.009 82.3101 148.133 82.1542 148.257C81.9672 148.381 81.7801 148.474 81.5931 148.536C81.4061 148.629 81.219 148.691 81.0008 148.722C80.8138 148.753 80.5955 148.784 80.4085 148.784C80.2215 148.784 80.0032 148.753 79.785 148.722C79.598 148.691 79.4109 148.629 79.2239 148.536C79.0369 148.474 78.8498 148.381 78.6628 148.257C78.5069 148.133 78.351 148.009 78.1952 147.885C77.634 147.296 77.2911 146.49 77.2911 145.685C77.2911 144.879 77.634 144.073 78.1952 143.484C78.351 143.36 78.5069 143.236 78.6628 143.112C78.8498 142.988 79.0369 142.895 79.2239 142.834C79.4109 142.741 79.598 142.679 79.785 142.648C80.1903 142.555 80.6267 142.555 81.0008 142.648C81.219 142.679 81.4061 142.741 81.5931 142.834C81.7801 142.895 81.9672 142.988 82.1542 143.112C82.3101 143.236 82.466 143.36 82.6218 143.484C83.183 144.073 83.5259 144.879 83.5259 145.685C83.5259 146.49 83.183 147.296 82.6218 147.885Z" fill="#EB1515"/>
<path d="M104.626 171.239L38.7747 171.261C35.4665 171.263 32.5031 169.56 30.848 166.708C30.0203 165.282 29.6064 163.717 29.6058 162.152C29.6053 160.587 30.0183 159.022 30.8448 157.596L63.7497 97.9491C65.403 95.0955 68.3653 93.3914 71.6735 93.3903C74.9817 93.3891 77.9451 95.0912 79.6004 97.9436L112.551 157.575C113.376 158.997 113.789 160.56 113.79 162.124C113.789 163.688 113.377 165.253 112.55 166.68C110.897 169.533 107.935 171.238 104.626 171.239ZM30.4336 162.151C30.4335 163.576 37.7 160.506 38.4528 161.804C39.9586 164.398 35.7646 170.44 38.7744 170.439C38.7744 170.439 110.331 168.865 111.835 166.269C112.586 164.971 112.962 163.547 112.962 162.124C112.961 160.7 112.584 159.276 111.831 157.979L78.8809 98.3477C77.3793 95.7602 74.6836 94.2117 71.6738 94.2127C68.6654 94.2137 30.4337 160.727 30.4336 162.151Z" fill="#0C282E"/>
<path d="M105.358 170.416C104.532 172.061 143.192 171.556 143.649 171.556C143.649 171.556 154.515 171.317 154.743 170.922C154.858 170.725 154.915 170.509 154.915 170.293C154.914 170.077 154.857 169.86 154.743 169.663L149.739 160.608C149.511 160.215 149.102 159.98 148.645 159.98C148.626 159.98 148.598 159.997 148.561 160.029C141.886 165.969 133.66 169.895 124.709 170.028C115.191 170.169 105.41 170.312 105.358 170.416Z" fill="#0C282E"/>
<path d="M167.454 169.136L163.718 169.137L161.936 154.791L167.449 154.789L167.454 169.136Z" fill="#A0616A"/>
<path d="M154.656 169.056C154.54 169.251 154.479 169.88 154.479 170.107C154.479 170.804 155.047 171.369 155.747 171.369L167.315 171.365C167.792 171.365 168.179 170.979 168.179 170.504L168.179 170.024C168.179 170.024 168.751 168.583 167.572 166.806C167.572 166.806 166.108 168.198 163.919 166.02L163.274 164.856L158.604 168.259L156.016 168.577C155.449 168.647 154.947 168.567 154.656 169.056Z" fill="#0C282E"/>
<path d="M153.131 156.866L149.593 158.058L143.291 145.036L148.513 143.277L153.131 156.866Z" fill="#A0616A"/>
<path d="M140.982 160.871C140.935 161.093 141.079 161.709 141.152 161.924C141.377 162.584 142.097 162.938 142.76 162.715L153.717 159.022C154.169 158.87 154.412 158.381 154.259 157.93L154.104 157.476C154.104 157.476 154.182 155.928 152.494 154.622C152.494 154.622 151.555 156.407 148.781 155.041L147.795 154.145L144.466 158.858L142.117 159.985C141.602 160.231 141.101 160.315 140.982 160.871Z" fill="#0C282E"/>
<path d="M147.362 73.6448L140.117 97.5368L131.564 119.027L145.105 149.718L150.125 147.494L144.118 119.301L156.716 100.17L162.596 159.892L167.617 159.612L174.427 87.5247L175.398 71.8295L147.362 73.6448Z" fill="#1D4851"/>
<path d="M169.243 20.7192L158.642 22.6674L157.807 27.39L151.392 30.4478L148.056 65.1721C148.056 65.1721 142.479 72.3964 146.944 74.6172L175.398 71.8295C175.398 71.8295 176.791 66.6933 175.396 66.206C174.001 65.7187 173.997 53.4503 173.997 53.4503L180.404 28.2156L170.918 24.8854L169.243 20.7192Z" fill="#D0D5DD"/>
<path d="M162.99 20.6281C167.718 20.6281 171.55 16.8119 171.55 12.1045C171.55 7.39711 167.718 3.58099 162.99 3.58099C158.263 3.58099 154.43 7.39711 154.43 12.1045C154.43 16.8119 158.263 20.6281 162.99 20.6281Z" fill="#A0616A"/>
<path d="M168.659 13.3696C167.976 13.7419 168.624 15.5197 168.197 15.6734C167.703 15.8511 165.904 13.8118 165.882 11.5276C165.875 10.8363 166.035 10.5043 165.881 9.68469C165.68 8.61253 165.063 7.34794 164.492 7.38151C164.154 7.40141 163.823 7.87795 163.799 8.30321C163.764 8.89924 164.345 9.13383 164.262 9.45488C164.102 10.0664 161.661 10.4886 160.791 9.45608C160.11 8.6466 160.633 7.22535 160.328 7.15258C160.103 7.09894 159.862 7.88143 158.94 8.76562C158.593 9.09875 158.076 9.59418 157.784 9.45712C157.361 9.25905 157.668 7.86314 157.552 7.84463C157.456 7.82931 157.395 8.81046 156.859 9.6878C156.169 10.815 154.747 11.6837 154.083 11.3013C153.676 11.067 153.644 10.4147 153.62 9.91929C153.568 8.87555 152.045 6.47476 152.439 5.35821C153.241 3.08571 154.615 4.68761 155.237 3.92922C156.079 2.90254 156.834 3.45453 158.244 2.31562C159.622 1.20302 159.634 0.0847526 160.557 0.0111613C161.388 -0.0551104 161.683 0.827541 162.639 0.701541C163.449 0.594801 163.625 -0.0897883 164.258 0.00988237C164.838 0.101131 164.876 0.704218 165.647 0.930868C166.139 1.07557 166.247 0.86613 166.804 0.930469C167.962 1.06434 168.74 2.11511 168.886 2.31195C169.448 3.07075 169.23 3.39074 169.812 4.15455C170.314 4.81324 171.427 4.53353 171.845 4.86251C173.211 5.93747 173.799 7.91989 173.811 10.1794C173.819 11.7597 173.612 12.5582 173.15 14.5529C172.8 16.0676 171.175 18.025 170.28 18.8978C170.04 19.1321 169.366 19.7889 168.892 19.5894C168.443 19.4003 168.43 18.55 168.429 18.4377C168.427 18.0516 168.53 17.5738 169.354 16.3641C170.219 15.0934 170.562 14.9484 170.51 14.5208C170.417 13.7649 169.203 13.0728 168.659 13.3696Z" fill="#0C282E"/>
<path d="M138.8 92.8362C138.534 95.0578 139.469 96.9957 140.889 97.1645C142.308 97.3333 143.675 95.6692 143.942 93.4475C144.058 92.475 143.945 91.557 143.661 90.8178L144.671 81.3899L140.218 81.012L139.695 90.3462C139.244 90.9981 138.917 91.8637 138.8 92.8362Z" fill="#A0616A"/>
<path d="M151.601 30.2235C151.601 30.2235 149.294 30.2562 147.766 33.2269C146.954 34.8056 142.611 64.3263 142.611 64.3263L138.611 88.5093L145.426 88.5435L150.736 65.6416L155.203 52.3589L151.601 30.2235Z" fill="#D0D5DD"/>
<path d="M170.779 89.2876C170.126 91.4286 170.706 93.4994 172.075 93.9129C173.443 94.3265 175.081 92.9261 175.734 90.7851C176.019 89.8479 176.069 88.9241 175.919 88.147L178.57 79.0404L174.252 77.8927L172.097 86.9918C171.539 87.5552 171.064 88.3504 170.779 89.2876Z" fill="#A0616A"/>
<path d="M175.522 28.6339C175.522 28.6339 178.869 26.1327 181.66 30.0207C184.451 33.9087 185.578 65.8536 185.578 65.8536L177.774 85.5791L171.915 83.6366L177.486 59.4674L167.715 41.1369L175.522 28.6339Z" fill="#D0D5DD"/>
</svg>
