<svg width="24" height="24" viewBox="0 0 24 24" fill="none" xmlns="http://www.w3.org/2000/svg">
<g id="vuesax/bold/building">
<g id="vuesax/bold/building_2">
<g id="building">
<path id="Vector" d="M10.7497 4.63986L6.31973 2.44986C3.92973 1.27986 1.96973 2.46986 1.96973 5.08986V19.9299C1.96973 21.0699 2.91973 21.9999 4.07973 21.9999H11.4997C12.0497 21.9999 12.4997 21.5499 12.4997 20.9999V7.40986C12.4997 6.35986 11.7097 5.10986 10.7497 4.63986ZM8.96973 13.7499H5.49973C5.08973 13.7499 4.74973 13.4099 4.74973 12.9999C4.74973 12.5899 5.08973 12.2499 5.49973 12.2499H8.96973C9.37973 12.2499 9.71973 12.5899 9.71973 12.9999C9.71973 13.4099 9.38973 13.7499 8.96973 13.7499ZM8.96973 9.74986H5.49973C5.08973 9.74986 4.74973 9.40986 4.74973 8.99986C4.74973 8.58986 5.08973 8.24986 5.49973 8.24986H8.96973C9.37973 8.24986 9.71973 8.58986 9.71973 8.99986C9.71973 9.40986 9.38973 9.74986 8.96973 9.74986Z"/>
<path id="Vector_2" d="M22 18.04V19.5C22 20.88 20.88 22 19.5 22H14.97C14.43 22 14 21.57 14 21.03V18.87C15.07 19 16.2 18.69 17.01 18.04C17.69 18.59 18.56 18.92 19.51 18.92C20.44 18.92 21.31 18.59 22 18.04Z" />
<path id="Vector_3" d="M22 15.05V15.06C21.92 16.37 20.85 17.42 19.51 17.42C18.12 17.42 17.01 16.29 17.01 14.92C17.01 16.45 15.6 17.68 14 17.37V12C14 11.36 14.59 10.88 15.22 11.02L17.01 11.42L17.49 11.53L19.53 11.99C20.02 12.09 20.47 12.26 20.86 12.51C20.86 12.52 20.87 12.52 20.87 12.52C20.97 12.59 21.07 12.67 21.16 12.76C21.62 13.22 21.92 13.89 21.99 14.87C21.99 14.93 22 14.99 22 15.05Z"/>
</g>
</g>
</g>
</svg>
