<svg width="24" height="24" viewBox="0 0 24 24" xmlns="http://www.w3.org/2000/svg" xmlns:xlink="http://www.w3.org/1999/xlink" version="1.1" fill="none">
    <g transform="scale(1,-1) translate(0,-24)">
        <path d="M 4.496732 2.843454 L 19.503268 2.843454 C 20.232284 2.843454 20.823268 3.434438 20.823268 4.163454 L 20.823268 10.904836 C 20.823268 11.633852 20.232284 12.224836 19.503268 12.224836 L 4.496732 12.224836 C 3.767716 12.224836 3.176732 11.633852 3.176732 10.904836 L 3.176732 4.163454 C 3.176732 3.434438 3.767716 2.843454 4.496732 2.843454 Z M 4.496732 1.643454 C 3.104974 1.643454 1.976732 2.771696 1.976732 4.163454 L 1.976732 10.904836 C 1.976732 12.296594 3.104974 13.424836 4.496732 13.424836 L 19.503268 13.424836 C 20.895026 13.424836 22.023268 12.296594 22.023268 10.904836 L 22.023268 4.163454 C 22.023268 2.771696 20.895026 1.643454 19.503268 1.643454 L 4.496732 1.643454 Z" transform="scale(1.000000,1.000000) translate(0.000000,1.000000)"></path>
        <path d="M 20.484100 1.841400 L 21.285100 2.381500 L 21.825200 3.182500 L 22.023200 4.163400 L 22.023200 14.274800 L 21.825200 15.255700 L 21.285100 16.056700 L 20.484100 16.596700 L 19.503200 16.794800 L 18.571000 16.794800 L 18.901900 15.594800 L 19.503200 15.594800 L 20.017000 15.491000 L 20.436600 15.208100 L 20.719500 14.788600 L 20.823200 14.274800 L 20.823200 4.163400 L 20.719500 3.649600 L 20.436600 3.230000 L 20.017000 2.947100 L 19.503200 2.843400 L 4.496700 2.843400 L 3.982900 2.947100 L 3.563300 3.230000 L 3.280400 3.649600 L 3.176700 4.163400 L 3.176700 14.274800 L 3.280400 14.788600 L 3.563300 15.208100 L 3.982900 15.491000 L 4.496700 15.594800 L 7.462800 15.594800 L 7.713800 16.794800 L 4.496700 16.794800 L 3.515800 16.596700 L 2.714800 16.056700 L 2.174700 15.255700 L 1.976700 14.274800 L 1.976700 4.163400 L 2.174700 3.182500 L 2.714800 2.381500 L 3.515800 1.841400 L 4.496700 1.643400 L 19.503200 1.643400 Z" transform="scale(1.000000,1.000000) translate(0.000000,1.000000)"></path>
        <path d="M 14.830200 10.432800 L 14.989900 11.128600 L 14.876700 11.810400 L 14.518800 12.401600 L 13.944600 12.825700 L 7.301200 15.937200 L 6.605700 16.105800 L 5.925500 15.996000 L 5.337700 15.636500 L 4.919600 15.055700 L 1.728800 7.984100 L 3.045300 7.984100 L 6.013400 14.562200 L 6.342000 14.870600 L 6.792200 14.850400 L 13.435700 11.739000 L 13.751300 11.393900 L 13.736400 10.926400 L 12.408800 7.984100 L 13.361000 7.984100 L 13.694900 7.916700 Z" transform="scale(1.000000,1.000000) translate(4.000000,6.000000)"></path>
        <path d="M 7.630400 11.873900 L 6.755400 12.268700 L 3.468500 4.984100 L 4.521700 4.984100 Z" transform="scale(1.000000,1.000000) translate(5.000000,9.000000)"></path>
    </g>
</svg>