<svg width="25" height="24" viewBox="0 0 25 24" fill="none" xmlns="http://www.w3.org/2000/svg">
<g id="vuesax/outline/folder-add">
<g id="folder-add">
<path id="Vector" d="M12.8101 17.25C12.4001 17.25 12.0601 16.91 12.0601 16.5V11.5C12.0601 11.09 12.4001 10.75 12.8101 10.75C13.2201 10.75 13.5601 11.09 13.5601 11.5V16.5C13.5601 16.91 13.2201 17.25 12.8101 17.25Z" fill="#0C282E"/>
<path id="Vector_2" d="M15.25 14.75H10.25C9.84 14.75 9.5 14.41 9.5 14C9.5 13.59 9.84 13.25 10.25 13.25H15.25C15.66 13.25 16 13.59 16 14C16 14.41 15.66 14.75 15.25 14.75Z" fill="#0C282E"/>
<path id="Vector_3" d="M17.75 22.75H7.75C3.34 22.75 2 21.41 2 17V7C2 2.59 3.34 1.25 7.75 1.25H9.25C11 1.25 11.55 1.82 12.25 2.75L13.75 4.75C14.08 5.19 14.13 5.25 14.75 5.25H17.75C22.16 5.25 23.5 6.59 23.5 11V17C23.5 21.41 22.16 22.75 17.75 22.75ZM7.75 2.75C4.18 2.75 3.5 3.43 3.5 7V17C3.5 20.57 4.18 21.25 7.75 21.25H17.75C21.32 21.25 22 20.57 22 17V11C22 7.43 21.32 6.75 17.75 6.75H14.75C13.47 6.75 13.05 6.31 12.55 5.65L11.05 3.65C10.53 2.96 10.38 2.75 9.25 2.75H7.75Z" fill="#0C282E"/>
</g>
</g>
</svg>
