<svg width="12" height="13" viewBox="0 0 12 13" fill="none" xmlns="http://www.w3.org/2000/svg">
<g id="Help">
<path id="Vector" d="M5.975 9.5C6.15 9.5 6.298 9.4395 6.419 9.3185C6.53967 9.19783 6.6 9.05 6.6 8.875C6.6 8.7 6.53967 8.55217 6.419 8.4315C6.298 8.3105 6.15 8.25 5.975 8.25C5.8 8.25 5.652 8.3105 5.531 8.4315C5.41033 8.55217 5.35 8.7 5.35 8.875C5.35 9.05 5.41033 9.19783 5.531 9.3185C5.652 9.4395 5.8 9.5 5.975 9.5ZM6.05 4.35C6.28333 4.35 6.47083 4.4145 6.6125 4.5435C6.75417 4.67283 6.825 4.84167 6.825 5.05C6.825 5.19167 6.77717 5.33533 6.6815 5.481C6.5855 5.627 6.45 5.77917 6.275 5.9375C6.025 6.15417 5.84167 6.3625 5.725 6.5625C5.60833 6.7625 5.55 6.9625 5.55 7.1625C5.55 7.27917 5.59383 7.377 5.6815 7.456C5.76883 7.53533 5.87083 7.575 5.9875 7.575C6.10417 7.575 6.20833 7.53333 6.3 7.45C6.39167 7.36667 6.45 7.2625 6.475 7.1375C6.5 6.99583 6.55633 6.86467 6.644 6.744C6.73133 6.623 6.875 6.46667 7.075 6.275C7.33333 6.03333 7.51467 5.8125 7.619 5.6125C7.723 5.4125 7.775 5.19167 7.775 4.95C7.775 4.525 7.61467 4.177 7.294 3.906C6.973 3.63533 6.55833 3.5 6.05 3.5C5.7 3.5 5.38967 3.56667 5.119 3.7C4.848 3.83333 4.6375 4.0375 4.4875 4.3125C4.42917 4.42083 4.40833 4.527 4.425 4.631C4.44167 4.73533 4.5 4.82083 4.6 4.8875C4.70833 4.95417 4.82717 4.975 4.9565 4.95C5.0855 4.925 5.19167 4.85417 5.275 4.7375C5.36667 4.6125 5.47717 4.51667 5.6065 4.45C5.7355 4.38333 5.88333 4.35 6.05 4.35ZM6 11.5C5.31667 11.5 4.67083 11.3687 4.0625 11.106C3.45417 10.8437 2.923 10.4875 2.469 10.0375C2.01467 9.5875 1.65633 9.05833 1.394 8.45C1.13133 7.84167 1 7.19167 1 6.5C1 5.80833 1.13133 5.15833 1.394 4.55C1.65633 3.94167 2.01467 3.4125 2.469 2.9625C2.923 2.5125 3.45417 2.15617 4.0625 1.8935C4.67083 1.63117 5.31667 1.5 6 1.5C6.7 1.5 7.35417 1.63117 7.9625 1.8935C8.57083 2.15617 9.1 2.5125 9.55 2.9625C10 3.4125 10.3542 3.94167 10.6125 4.55C10.8708 5.15833 11 5.80833 11 6.5C11 7.19167 10.8708 7.84167 10.6125 8.45C10.3542 9.05833 10 9.5875 9.55 10.0375C9.1 10.4875 8.57083 10.8437 7.9625 11.106C7.35417 11.3687 6.7 11.5 6 11.5ZM6 10.5C7.11667 10.5 8.0625 10.1105 8.8375 9.3315C9.6125 8.55217 10 7.60833 10 6.5C10 5.39167 9.6125 4.44783 8.8375 3.6685C8.0625 2.8895 7.11667 2.5 6 2.5C4.90833 2.5 3.96867 2.8895 3.181 3.6685C2.39367 4.44783 2 5.39167 2 6.5C2 7.60833 2.39367 8.55217 3.181 9.3315C3.96867 10.1105 4.90833 10.5 6 10.5Z" />
</g>
</svg>
