<svg width="12" height="13" viewBox="0 0 12 13" fill="none" xmlns="http://www.w3.org/2000/svg">
<g id="vuesax/outline/teacher">
<g id="teacher">
<path id="Vector" d="M6.00491 9.00014C5.57991 9.00014 5.14991 8.89014 4.81491 8.67514L1.80491 6.71014C1.24491 6.34514 0.909912 5.73014 0.909912 5.06014C0.909912 4.39014 1.24491 3.77514 1.80491 3.41014L4.81991 1.45014C5.48991 1.01514 6.53491 1.01514 7.19991 1.45514L10.1949 3.42014C10.7499 3.78514 11.0849 4.40014 11.0849 5.06514C11.0849 5.73014 10.7499 6.34514 10.1949 6.71014L7.19991 8.67514C6.86491 8.89514 6.43491 9.00014 6.00491 9.00014ZM6.00491 1.87514C5.71991 1.87514 5.43491 1.94014 5.22991 2.08014L2.21991 4.04014C1.86991 4.27014 1.66491 4.64014 1.66491 5.06014C1.66491 5.48014 1.86491 5.85014 2.21991 6.08014L5.22991 8.04514C5.64491 8.31514 6.37491 8.31514 6.78991 8.04514L9.78491 6.08014C10.1349 5.85014 10.3349 5.48014 10.3349 5.06014C10.3349 4.64014 10.1349 4.27014 9.78491 4.04014L6.78991 2.07514C6.57991 1.94514 6.29491 1.87514 6.00491 1.87514Z"/>
<path id="Vector_2" d="M6.00009 11.875C5.78009 11.875 5.55509 11.845 5.37509 11.785L3.78009 11.255C3.02509 11.005 2.43009 10.18 2.43509 9.38504L2.44009 7.04004C2.44009 6.83504 2.61009 6.66504 2.81509 6.66504C3.02009 6.66504 3.19009 6.83504 3.19009 7.04004L3.18509 9.38504C3.18509 9.85504 3.57509 10.395 4.02009 10.545L5.61509 11.075C5.81509 11.14 6.18509 11.14 6.38509 11.075L7.98009 10.545C8.42509 10.395 8.81509 9.85504 8.81509 9.39004V7.07004C8.81509 6.86504 8.98509 6.69504 9.19009 6.69504C9.39509 6.69504 9.56509 6.86504 9.56509 7.07004V9.39004C9.56509 10.185 8.97509 11.005 8.22009 11.26L6.62509 11.79C6.44509 11.845 6.22009 11.875 6.00009 11.875Z"/>
<path id="Vector_3" d="M10.7 8.375C10.495 8.375 10.325 8.205 10.325 8V5C10.325 4.795 10.495 4.625 10.7 4.625C10.905 4.625 11.075 4.795 11.075 5V8C11.075 8.205 10.905 8.375 10.7 8.375Z"/>
</g>
</g>
</svg>
